<svg width="57" height="56" viewBox="0 0 57 56" fill="none" xmlns="http://www.w3.org/2000/svg">
<rect x="0.644531" width="56" height="56" rx="28" fill="#88DBFD"/>
<path d="M28.3945 23V24.25" stroke="black" stroke-width="1.5" stroke-linecap="round" stroke-linejoin="round"/>
<path d="M28.3945 33V31.75" stroke="black" stroke-width="1.5" stroke-linecap="round" stroke-linejoin="round"/>
<path d="M30.8815 26C30.8165 25.024 30.0115 24.25 29.0195 24.25H27.6495C26.6795 24.25 25.8945 25.036 25.8945 26.005C25.8945 26.81 26.4425 27.512 27.2225 27.708L29.5655 28.296C30.3465 28.492 30.8935 29.194 30.8935 29.999C30.8935 30.969 30.1075 31.754 29.1385 31.754H27.7685C26.7745 31.754 25.9695 30.978 25.9055 30" stroke="black" stroke-width="1.5" stroke-linecap="round" stroke-linejoin="round"/>
<path d="M22.5156 21.872C24.0846 20.303 26.2526 19.333 28.6476 19.333C33.4366 19.333 37.3196 23.214 37.3196 28.001C37.3196 28.669 37.2366 29.317 37.0936 29.942" stroke="black" stroke-width="1.5" stroke-linecap="round" stroke-linejoin="round"/>
<path d="M35.752 28.602L37.319 30.169L38.886 28.602" stroke="black" stroke-width="1.5" stroke-linecap="round" stroke-linejoin="round"/>
<path d="M34.7747 34.128C33.2057 35.697 31.0377 36.667 28.6427 36.667C23.8537 36.667 19.9707 32.786 19.9707 27.999C19.9707 27.331 20.0537 26.683 20.1967 26.058" stroke="black" stroke-width="1.5" stroke-linecap="round" stroke-linejoin="round"/>
<path d="M21.5383 27.398L19.9713 25.831L18.4043 27.398" stroke="black" stroke-width="1.5" stroke-linecap="round" stroke-linejoin="round"/>
</svg>
