<svg width="50" height="51" viewBox="0 0 50 51" fill="none" xmlns="http://www.w3.org/2000/svg">
<g filter="url(#filter0_iiii_585_2710)">
<rect y="0.242188" width="50" height="50" rx="10" fill="#0D0D0D"/>
<path d="M33.8638 21.5866C33.8638 20.267 32.7941 19.1973 31.4745 19.1973H18.526C17.2065 19.1973 16.1367 20.267 16.1367 21.5866V28.8978C16.1367 30.2174 17.2065 31.2871 18.526 31.2871H31.4745C32.7941 31.2871 33.8638 30.2174 33.8638 28.8978V21.5866ZM32.0911 21.8194C32.0911 22.0658 31.9552 22.2921 31.7378 22.408L26.1238 25.3992C25.4215 25.7734 24.579 25.7734 23.8767 25.3992L18.2627 22.408C18.0453 22.2921 17.9094 22.0658 17.9094 21.8194C17.9094 21.3161 18.4457 20.9942 18.8899 21.2309L23.8767 23.8879C24.579 24.2621 25.4215 24.2621 26.1238 23.8879L31.1106 21.2309C31.5548 20.9942 32.0911 21.3161 32.0911 21.8194Z" fill="white"/>
</g>
<defs>
<filter id="filter0_iiii_585_2710" x="-4" y="-3.75781" width="58" height="58" filterUnits="userSpaceOnUse" color-interpolation-filters="sRGB">
<feFlood flood-opacity="0" result="BackgroundImageFix"/>
<feBlend mode="normal" in="SourceGraphic" in2="BackgroundImageFix" result="shape"/>
<feColorMatrix in="SourceAlpha" type="matrix" values="0 0 0 0 0 0 0 0 0 0 0 0 0 0 0 0 0 0 127 0" result="hardAlpha"/>
<feOffset dx="-2"/>
<feGaussianBlur stdDeviation="3"/>
<feComposite in2="hardAlpha" operator="arithmetic" k2="-1" k3="1"/>
<feColorMatrix type="matrix" values="0 0 0 0 0 0 0 0 0 0 0 0 0 0 0 0 0 0 0.25 0"/>
<feBlend mode="normal" in2="shape" result="effect1_innerShadow_585_2710"/>
<feColorMatrix in="SourceAlpha" type="matrix" values="0 0 0 0 0 0 0 0 0 0 0 0 0 0 0 0 0 0 127 0" result="hardAlpha"/>
<feOffset dx="2" dy="2"/>
<feGaussianBlur stdDeviation="3"/>
<feComposite in2="hardAlpha" operator="arithmetic" k2="-1" k3="1"/>
<feColorMatrix type="matrix" values="0 0 0 0 0 0 0 0 0 0 0 0 0 0 0 0 0 0 0.15 0"/>
<feBlend mode="normal" in2="effect1_innerShadow_585_2710" result="effect2_innerShadow_585_2710"/>
<feColorMatrix in="SourceAlpha" type="matrix" values="0 0 0 0 0 0 0 0 0 0 0 0 0 0 0 0 0 0 127 0" result="hardAlpha"/>
<feOffset dy="2"/>
<feGaussianBlur stdDeviation="4"/>
<feComposite in2="hardAlpha" operator="arithmetic" k2="-1" k3="1"/>
<feColorMatrix type="matrix" values="0 0 0 0 1 0 0 0 0 1 0 0 0 0 1 0 0 0 0.1 0"/>
<feBlend mode="normal" in2="effect2_innerShadow_585_2710" result="effect3_innerShadow_585_2710"/>
<feColorMatrix in="SourceAlpha" type="matrix" values="0 0 0 0 0 0 0 0 0 0 0 0 0 0 0 0 0 0 127 0" result="hardAlpha"/>
<feOffset dx="2"/>
<feGaussianBlur stdDeviation="2.5"/>
<feComposite in2="hardAlpha" operator="arithmetic" k2="-1" k3="1"/>
<feColorMatrix type="matrix" values="0 0 0 0 1 0 0 0 0 1 0 0 0 0 1 0 0 0 0.1 0"/>
<feBlend mode="normal" in2="effect3_innerShadow_585_2710" result="effect4_innerShadow_585_2710"/>
</filter>
</defs>
</svg>
