<svg width="80" height="40" viewBox="0 0 80 40" fill="none" xmlns="http://www.w3.org/2000/svg">
<path d="M6.17876 8.59865C5.69007 7.35665 5.90223 5.92857 6.35238 4.7275C6.82599 3.46365 7.65069 2.20327 8.88329 1.53857C8.94444 2.87042 8.53759 4.18627 8.09306 5.3728C7.69329 6.44004 7.20276 7.57704 6.39276 8.45965C6.2683 9.12842 6.17292 9.79534 6.10584 10.4592C6.3743 9.75788 6.80961 9.11865 7.35276 8.60465C8.05206 7.9428 9.09229 7.43211 10.0687 7.73411C9.78275 8.8135 9.13083 9.84819 8.35875 10.574C7.75106 11.1453 6.94884 11.8774 6.00392 11.9062C5.96499 12.8831 5.98699 13.8511 6.06738 14.806C6.20069 14.1072 6.4863 13.4492 6.89899 12.9592C7.46592 12.2859 8.30652 11.4633 9.38006 11.6009C9.32144 12.6933 8.88567 13.8127 8.27883 14.6537C7.79659 15.3221 7.15999 16.174 6.25638 16.394C6.40107 17.3323 6.60261 18.255 6.8583 19.1578C6.86076 18.4665 7.01346 17.788 7.31638 17.2437C7.74329 16.4763 8.40821 15.5192 9.48298 15.4443C9.64052 16.5161 9.42706 17.6877 8.99644 18.6196C8.65229 19.3644 8.19344 20.3143 7.35707 20.7073C7.70829 21.6786 8.1239 22.6229 8.60044 23.5343C8.43313 22.7487 8.43983 21.921 8.63783 21.1762C8.91067 20.1494 9.58798 19.0709 10.6754 18.7579C11.0597 19.8914 11.0067 21.1565 10.7834 22.3087C10.5997 23.2573 10.2386 24.3714 9.42921 24.9876C9.95836 25.8416 10.5437 26.6611 11.1821 27.4409C10.8391 26.6761 10.6687 25.8397 10.7601 25.074C10.8934 23.9584 11.2068 22.765 12.3463 22.1703C12.9927 23.2857 13.1425 24.537 13.1974 25.7729C13.2418 26.772 13.0979 28.0044 12.404 28.8173C13.1673 29.6109 13.9909 30.3536 14.8706 31.0386C14.3027 30.31 13.905 29.4551 13.8207 28.6097C13.7018 27.4151 13.76 26.1001 14.8201 25.2235C15.7267 26.1704 16.2677 27.565 16.5328 28.7762C16.7673 29.8471 17.0121 31.1146 16.4538 32.1686C17.5734 32.8993 18.7685 33.5432 20.0321 34.0884C19.143 33.4548 18.4151 32.5855 18.0684 31.688C17.614 30.5114 17.3329 29.1095 18.2181 27.9312C19.404 28.6908 20.2756 29.9868 20.9623 31.1688C21.5515 32.183 22.1614 33.5829 21.8588 34.7908C22.5584 35.0282 23.2761 35.2366 24.011 35.4145L23.9673 35.5949C23.2297 35.4163 22.5092 35.2072 21.8067 34.9691C21.3146 36.4235 19.7024 36.904 18.3985 37.1161C16.5407 37.4183 14.3287 36.8327 12.7427 35.653C13.5797 34.47 15.2877 34.35 16.5755 34.2595L16.5923 34.2583C18.0031 34.1592 19.5291 34.2916 20.9478 34.6603C19.3088 34.0363 17.7752 33.2519 16.3611 32.3296L16.3402 32.3626C15.5653 33.6191 14.0094 33.6681 12.7882 33.5886C11.1311 33.4808 9.21782 32.4732 8.11052 31.0803C9.15206 30.1665 10.6904 30.4223 11.8824 30.6204L11.8882 30.6213C13.2186 30.8425 14.6724 31.325 15.8927 32.0678C15.7764 31.9763 15.6627 31.8794 15.5521 31.7779C14.3657 30.932 13.2712 29.9857 12.2781 28.954C12.2665 28.9656 12.2548 28.977 12.2431 28.9884C11.2774 29.9599 9.8709 29.7055 8.77329 29.3893C7.30446 28.9663 5.78115 27.6899 5.05115 26.2246C6.18238 25.5907 7.53484 26.113 8.58683 26.5262C9.74144 26.9796 10.9631 27.705 11.9024 28.6297C11.8055 28.5076 11.7131 28.38 11.6258 28.2479C10.7527 27.2625 9.96736 26.2073 9.2769 25.0942L9.24229 25.1159C8.14983 25.8209 6.91207 25.3103 5.93107 24.8083C4.60099 24.1276 3.53215 22.6316 3.0703 21.1603C4.25023 20.7824 5.41599 21.5242 6.32223 22.1117C7.31338 22.7541 8.31736 23.6704 9.00652 24.7213C8.9559 24.6177 8.90875 24.5119 8.86529 24.404C8.20313 23.2488 7.64061 22.036 7.18523 20.778L7.16176 20.786L7.15984 20.7866C6.16653 21.1643 5.06038 20.5772 4.33923 19.9333C3.33692 19.0386 2.63046 17.663 2.46484 16.319C3.50046 16.1849 4.47615 16.9861 5.14323 17.6695C5.91107 18.456 6.60023 19.3857 7.02392 20.4182C6.99299 20.306 6.96646 20.1921 6.94415 20.077C6.55861 18.8948 6.26653 17.6756 6.07399 16.4291L6.05899 16.431L6.05392 16.4318C5.00376 16.6071 4.03284 15.8087 3.45276 15.0339C2.63892 13.9466 2.21938 12.4417 2.32453 11.0778C3.37061 11.151 4.16715 12.1461 4.68369 12.9511C5.28153 13.883 5.7773 14.9377 5.99446 16.0411C5.98784 15.9533 5.98392 15.865 5.98253 15.7765C5.82307 14.5079 5.76623 13.2133 5.81823 11.9027L5.81523 11.9025C4.74753 11.864 3.95846 10.8727 3.55107 9.99342C2.96815 8.73511 2.8743 7.14457 3.26338 5.80411C4.28099 6.08973 4.8483 7.25704 5.18315 8.15557C5.56923 9.19157 5.83869 10.3215 5.84084 11.4449C5.89638 10.5024 6.00823 9.5525 6.17876 8.59865Z" fill="white"/>
<path d="M27.2088 6.27344V10.7733C27.2088 12.7524 25.4163 13.7047 22.6996 13.7047C20.1603 13.7047 18.3398 12.7618 18.3398 10.5399V6.27344H20.8698V10.5399C20.8698 11.3334 21.5513 11.8282 22.8023 11.8282C23.9973 11.8282 24.7068 11.3147 24.7068 10.5492V6.27344H27.2088Z" fill="white"/>
<path d="M35.6331 11.6508V13.602H28.6406V6.27344H31.1706V11.6508H35.6331Z" fill="white"/>
<path d="M43.1539 8.11259V6.27344H34.4062V8.11259H37.4964V13.602H40.0544V8.11259H43.1539Z" fill="white"/>
<path fill-rule="evenodd" clip-rule="evenodd" d="M52.1286 7.02036C52.4647 7.36574 52.6239 7.8419 52.6239 8.50467C52.6239 9.07421 52.4839 9.55967 52.2501 9.88636C51.9886 10.2411 51.587 10.5399 51.0924 10.6146L53.3055 13.602H50.5232L48.7024 11.016H46.4341V13.602H43.9414V6.27344H49.7763C50.9339 6.27344 51.6901 6.55351 52.1286 7.02036ZM50.1124 9.1209C50.1778 9.00882 50.1963 8.85944 50.1963 8.73813C50.1963 8.59805 50.1778 8.44867 50.1124 8.35536C49.9816 8.11259 49.7201 8.04728 49.3278 8.04728H46.4434V9.38228H49.3747C49.7763 9.38228 50.0193 9.30759 50.1124 9.1209Z" fill="white"/>
<path fill-rule="evenodd" clip-rule="evenodd" d="M56.6727 12.2484H60.6312L61.275 13.602H63.9735L60.2765 6.27344H57.2611L53.3496 13.602H55.9912L56.6727 12.2484ZM59.8373 10.6052H57.4942L58.4188 8.84082L58.6988 8.16859L58.9604 8.83144L59.8373 10.6052Z" fill="white"/>
<path fill-rule="evenodd" clip-rule="evenodd" d="M51.8607 14.9822C50.2946 14.9822 49.4707 15.7245 49.4707 16.8153C49.4707 18.0464 50.3353 18.6709 51.8607 18.6709C53.5399 18.6709 54.2461 17.9468 54.2461 16.8153C54.2461 15.6656 53.4492 14.9822 51.8607 14.9822ZM51.8607 17.7613C50.9692 17.7613 50.7107 17.3946 50.7107 16.8289C50.7107 16.2722 50.9915 15.9056 51.8561 15.9056C52.8022 15.9056 53.0146 16.3174 53.0146 16.8289C53.0146 17.372 52.7569 17.7613 51.8607 17.7613Z" fill="white"/>
<path d="M47.1481 18.6168V16.5122H44.7854V17.2771H46.0482C46.0392 17.3359 45.9939 17.4491 45.9351 17.5169C45.8038 17.6709 45.4553 17.8066 45.0027 17.8066C44.532 17.8066 44.2287 17.6844 44.0658 17.4943C43.9572 17.354 43.8938 17.1549 43.8938 16.8562C43.8938 16.5439 43.9572 16.3312 44.0794 16.1909C44.2559 15.9917 44.5546 15.9057 44.9937 15.9057C45.3874 15.9057 45.659 15.9962 45.7857 16.1093C45.8672 16.1773 45.9305 16.2723 45.9441 16.3356H47.1164C47.1119 16.2225 47.0757 16.0415 47.0123 15.9103C46.7317 15.3399 46.0799 15.0005 44.9711 15.0005C44.007 15.0005 43.3597 15.2946 43.0022 15.7383C42.7668 16.0415 42.6582 16.4216 42.6582 16.8471C42.6582 17.3179 42.7849 17.7206 42.9931 17.9877C43.3461 18.4449 43.9753 18.6711 44.7311 18.6711C45.3965 18.6711 45.8536 18.5127 46.1433 18.2729L46.175 18.6168H47.1481Z" fill="white"/>
<path d="M34.8186 16.4667C35.7373 16.5662 36.1311 16.8921 36.1311 17.5122C36.1311 18.2635 35.3979 18.6708 33.954 18.6708C32.6098 18.6708 32.0305 18.2907 31.8087 17.7928C31.7589 17.6751 31.7363 17.5303 31.7227 17.4397H33.0262C33.0353 17.494 33.067 17.5755 33.1122 17.6298C33.2208 17.7611 33.524 17.838 34.04 17.838C34.7054 17.838 34.8638 17.743 34.8638 17.5665C34.8638 17.3764 34.7009 17.3357 34.0989 17.2723C33.859 17.2497 33.4788 17.2134 33.3204 17.1999C32.1708 17.0957 31.7454 16.7382 31.7454 16.1272C31.7454 15.4935 32.4967 15.0093 33.868 15.0093C35.0856 15.0093 35.6513 15.3714 35.8867 15.824C35.9591 15.9597 36.0043 16.1136 36.018 16.2222H34.7144C34.7099 16.1724 34.6918 16.1227 34.642 16.0593C34.5424 15.928 34.289 15.842 33.8364 15.842C33.1982 15.842 33.0307 15.919 33.0307 16.0819C33.0307 16.263 33.2435 16.3037 33.954 16.3807C34.2301 16.4033 34.6692 16.4485 34.8186 16.4667Z" fill="white"/>
<path fill-rule="evenodd" clip-rule="evenodd" d="M21.8277 15.367C22.0675 15.557 22.2033 15.8784 22.2033 16.3446C22.2033 16.7248 22.1083 17.0099 21.9272 17.209C21.6829 17.4896 21.28 17.6164 20.755 17.621C20.592 17.6255 19.198 17.621 19.198 17.621V18.6166H17.9805V15.0637H20.7369C21.2257 15.0637 21.5969 15.1633 21.8277 15.367ZM20.927 16.6206C20.9632 16.5573 20.9813 16.4758 20.9813 16.3626C20.9813 16.245 20.9586 16.1454 20.9179 16.0911C20.841 15.978 20.6962 15.9236 20.4608 15.9236H19.1889V16.7926H20.4517C20.7052 16.7926 20.8545 16.7338 20.927 16.6206Z" fill="white"/>
<path fill-rule="evenodd" clip-rule="evenodd" d="M26.6549 15.4258C26.8179 15.5933 26.8949 15.8241 26.8949 16.1454C26.8949 16.4215 26.8269 16.6569 26.7138 16.8153C26.5871 16.9873 26.3925 17.1321 26.1525 17.1683L27.2252 18.6166H25.8765L24.9939 17.363H23.894V18.6166H22.6855V15.0637H25.5144C26.0756 15.0637 26.4422 15.1995 26.6549 15.4258ZM25.6773 16.4442C25.709 16.3899 25.718 16.3174 25.718 16.2586C25.718 16.1907 25.709 16.1183 25.6773 16.073C25.6139 15.9553 25.4872 15.9236 25.2972 15.9236H23.8985V16.5709H25.3198C25.5144 16.5709 25.6321 16.5346 25.6773 16.4442Z" fill="white"/>
<path d="M31.3564 18.6166V17.7341H28.8082V17.2724H31.2523V16.408H28.8082V15.9508H31.3247V15.0637H27.6133V18.6166H31.3564Z" fill="white"/>
<path d="M40.5378 15.9553V15.0637H36.2969V15.9553H37.795V18.6166H39.0351V15.9553H40.5378Z" fill="white"/>
<path d="M42.1666 15.0637V18.6166H40.9219V15.0637H42.1666Z" fill="white"/>
<path d="M48.9773 15.0637V18.6166H47.7324V15.0637H48.9773Z" fill="white"/>
<path d="M59.05 15.0637V17.2453C59.05 18.2048 58.1808 18.6665 56.8638 18.6665C55.6331 18.6665 54.75 18.2093 54.75 17.1321V15.0637H55.9769V17.1321C55.9769 17.5168 56.3069 17.7567 56.9138 17.7567C57.4931 17.7567 57.8369 17.5078 57.8369 17.1366V15.0637H59.05Z" fill="white"/>
<path d="M63.9358 17.5122C63.9358 16.8921 63.542 16.5662 62.6235 16.4667C62.4735 16.4485 62.035 16.4033 61.7589 16.3807C61.0481 16.3037 60.835 16.263 60.835 16.0819C60.835 15.919 61.0027 15.842 61.6412 15.842C62.0935 15.842 62.3473 15.928 62.4466 16.0593C62.4966 16.1227 62.5143 16.1724 62.5189 16.2222H63.8227C63.8089 16.1136 63.7635 15.9597 63.6912 15.824C63.4558 15.3714 62.8904 15.0093 61.6727 15.0093C60.3012 15.0093 59.5497 15.4935 59.5497 16.1272C59.5497 16.7382 59.9758 17.0957 61.125 17.1999L61.1989 17.2064L61.322 17.2177L61.9035 17.2723C62.5058 17.3357 62.6681 17.3764 62.6681 17.5665C62.6681 17.743 62.5104 17.838 61.845 17.838C61.3289 17.838 61.0258 17.7611 60.9166 17.6298C60.872 17.5755 60.8397 17.494 60.8312 17.4397H59.5273C59.5412 17.5303 59.5635 17.6751 59.6135 17.7928C59.835 18.2907 60.4143 18.6708 61.7589 18.6708C63.2027 18.6708 63.9358 18.2635 63.9358 17.5122Z" fill="white"/>
<path fill-rule="evenodd" clip-rule="evenodd" d="M32.2856 19.9771C31.2678 19.9771 30.7324 20.4595 30.7324 21.1684C30.7324 21.9685 31.2943 22.3744 32.2856 22.3744C33.377 22.3744 33.8358 21.9038 33.8358 21.1684C33.8358 20.4213 33.3181 19.9771 32.2856 19.9771ZM32.2856 21.7832C31.7061 21.7832 31.5384 21.5449 31.5384 21.1772C31.5384 20.8154 31.7208 20.5771 32.2827 20.5771C32.8974 20.5771 33.0357 20.8448 33.0357 21.1772C33.0357 21.5302 32.868 21.7832 32.2856 21.7832Z" fill="white"/>
<path d="M26.623 21.6213C26.623 21.2183 26.367 21.0065 25.7699 20.9418C25.6728 20.93 25.3875 20.9006 25.208 20.8859C24.7462 20.8359 24.608 20.8094 24.608 20.6918C24.608 20.5859 24.7168 20.5359 25.1316 20.5359C25.4257 20.5359 25.5904 20.5917 25.6552 20.677C25.6875 20.7182 25.6993 20.7506 25.7023 20.7829H26.5494C26.5406 20.7123 26.5112 20.6123 26.4641 20.5241C26.3111 20.2299 25.9434 19.9946 25.1521 19.9946C24.2609 19.9946 23.7726 20.3093 23.7726 20.7212C23.7726 21.1183 24.049 21.3507 24.7962 21.4183C24.8992 21.4272 25.1463 21.4507 25.3022 21.4654C25.6934 21.5066 25.7993 21.5331 25.7993 21.6566C25.7993 21.7713 25.6964 21.8331 25.264 21.8331C24.9286 21.8331 24.7315 21.7831 24.6609 21.6978C24.6315 21.6625 24.6109 21.6096 24.605 21.5742H23.7578C23.7667 21.6331 23.7813 21.7272 23.8137 21.8037C23.9579 22.1272 24.3344 22.3743 25.208 22.3743C26.1464 22.3743 26.623 22.1096 26.623 21.6213Z" fill="white"/>
<path fill-rule="evenodd" clip-rule="evenodd" d="M20.751 21.6859C20.751 21.8448 20.7068 22.0007 20.6186 22.1036C20.4833 22.2684 20.2303 22.3389 19.9038 22.3389H17.8535V20.0298H19.8479C20.1656 20.0298 20.3686 20.1063 20.4804 20.221C20.5804 20.321 20.6245 20.4534 20.6245 20.6034C20.6245 20.7535 20.5892 20.877 20.5127 20.9682C20.4509 21.0447 20.3451 21.1035 20.2333 21.1182C20.398 21.1388 20.5539 21.2212 20.6421 21.3359C20.7157 21.4212 20.751 21.5506 20.751 21.6859ZM19.7597 20.877C19.7891 20.8446 19.8067 20.7976 19.8067 20.7417C19.8067 20.6858 19.7891 20.6387 19.7508 20.6064C19.7097 20.5681 19.6331 20.5534 19.5214 20.5534H18.6242V20.9299H19.542C19.642 20.9299 19.7185 20.9152 19.7597 20.877ZM19.6273 21.8154C19.7655 21.8154 19.8479 21.7977 19.895 21.7536C19.9244 21.7242 19.9361 21.6801 19.9361 21.6242C19.9361 21.5653 19.9214 21.5212 19.8861 21.4859C19.8421 21.4477 19.7655 21.43 19.6361 21.43H18.6242V21.8154H19.6273Z" fill="white"/>
<path d="M23.5186 21.7654V22.3389H21.0859V20.0298H23.498V20.6064H21.8625V20.9035H23.4509V21.4653H21.8625V21.7654H23.5186Z" fill="white"/>
<path d="M29.4867 20.0298V20.6093H28.5101V22.3389H27.7042V20.6093H26.7305V20.0298H29.4867Z" fill="white"/>
<path d="M36.5252 20.0298V20.6152H34.9573V20.9417H36.4516V21.5212H34.9573V22.3389H34.166V20.0298H36.5252Z" fill="white"/>
<path d="M40.5101 20.6093V20.0298H37.7539V20.6093H38.7276V22.3389H39.5336V20.6093H40.5101Z" fill="white"/>
<path d="M43.519 20.0298V22.3389H42.7306V21.5006H41.5481V22.3389H40.7598V20.0298H41.5481V20.8711H42.7306V20.0298H43.519Z" fill="white"/>
<path d="M46.419 22.3389V21.7654H44.7629V21.4653H46.3513V20.9035H44.7629V20.6064H46.3984V20.0298H43.9863V22.3389H46.419Z" fill="white"/>
<path d="M51.2939 20.0298H52.0554L51.2116 22.3389H50.347C50.347 22.3389 49.8847 20.9594 49.8816 20.9211C49.8793 20.9594 49.4139 22.3389 49.4139 22.3389H48.5523L47.6875 20.0298H48.5431C48.5431 20.0298 49.0439 21.4829 49.0439 21.5182C49.0439 21.4829 49.5054 20.0298 49.5054 20.0298H50.3323C50.3323 20.0298 50.797 21.4829 50.797 21.5182C50.797 21.4829 51.2939 20.0298 51.2939 20.0298Z" fill="white"/>
<path fill-rule="evenodd" clip-rule="evenodd" d="M53.5687 19.9771C52.551 19.9771 52.0156 20.4595 52.0156 21.1684C52.0156 21.9685 52.5772 22.3744 53.5687 22.3744C54.6602 22.3744 55.1187 21.9038 55.1187 21.1684C55.1187 20.4213 54.601 19.9771 53.5687 19.9771ZM53.5687 21.7832C52.9895 21.7832 52.8218 21.5449 52.8218 21.1772C52.8218 20.8154 53.0041 20.5771 53.5656 20.5771C54.181 20.5771 54.3187 20.8448 54.3187 21.1772C54.3187 21.5302 54.151 21.7832 53.5687 21.7832Z" fill="white"/>
<path fill-rule="evenodd" clip-rule="evenodd" d="M58.0292 20.2652C58.1346 20.374 58.1846 20.524 58.1846 20.7329C58.1846 20.9123 58.1408 21.0652 58.0669 21.1682C57.9846 21.28 57.8585 21.3742 57.7023 21.3976L58.3992 22.3389H57.5231L56.9492 21.5242H56.2346V22.3389H55.4492V20.0298H57.2877C57.6523 20.0298 57.8908 20.1181 58.0292 20.2652ZM57.3938 20.927C57.4138 20.8917 57.42 20.8446 57.42 20.8064C57.42 20.7622 57.4138 20.7152 57.3938 20.6858C57.3523 20.6093 57.27 20.5887 57.1461 20.5887H56.2377V21.0094H57.1608C57.2877 21.0094 57.3638 20.9859 57.3938 20.927Z" fill="white"/>
<path d="M60.8554 22.3389V21.7242H59.4493V20.0298H58.6523V22.3389H60.8554Z" fill="white"/>
<path fill-rule="evenodd" clip-rule="evenodd" d="M63.9761 21.1417C63.9761 21.5006 63.9407 21.6948 63.8353 21.8772C63.6761 22.1683 63.3615 22.3389 62.8053 22.3389H61.1699V20.0298H62.7876C63.3407 20.0298 63.6676 20.1857 63.8292 20.4534C63.9438 20.6329 63.9761 20.824 63.9761 21.1417ZM62.6553 21.7712C62.9053 21.7712 63.0468 21.7124 63.1322 21.583C63.1853 21.5036 63.1999 21.3182 63.1999 21.1565C63.1968 21.0094 63.1792 20.8535 63.1322 20.7829C63.0407 20.6446 62.903 20.5946 62.6615 20.5946H61.9584V21.7712H62.6553Z" fill="white"/>
<path d="M32.4207 33.5696H31.2018C31.2018 33.5696 30.4064 35.8946 30.4064 35.951C30.4064 35.8946 29.6628 33.5696 29.6628 33.5696H28.3403C28.3403 33.5696 27.6013 35.8946 27.6013 35.951C27.6013 35.8946 26.8013 33.5696 26.8013 33.5696H25.4316L26.8153 37.2641H28.1943C28.1943 37.2641 28.9379 35.0568 28.9426 34.9957C28.9474 35.0568 29.6863 37.2641 29.6863 37.2641H31.0699L32.4207 33.5696Z" fill="white"/>
<path d="M34.0873 37.2641V33.5696H32.793V37.2641H34.0873Z" fill="white"/>
<path d="M39.1228 33.5696V37.2641H37.8614L36.0306 35.2074V37.2641H34.8164V33.5696H36.1436L37.9179 35.5793V33.5696H39.1228Z" fill="white"/>
<path d="M44.1638 37.2641V33.5696H42.959V35.5793L41.1847 33.5696H39.8574V37.2641H41.0717V35.2074L42.9025 37.2641H44.1638Z" fill="white"/>
<path d="M48.793 36.3464V37.2641H44.9004V33.5696H48.7599V34.492H46.1429V34.9674H48.6845V35.8664H46.1429V36.3464H48.793Z" fill="white"/>
<path fill-rule="evenodd" clip-rule="evenodd" d="M53.7695 34.6944C53.7695 34.3603 53.6895 34.1203 53.5203 33.9461C53.2987 33.7108 52.918 33.5696 52.3341 33.5696H49.3926V37.2641H50.6495V35.9604H51.7933L52.711 37.2641H54.1133L52.998 35.7581C53.2472 35.7204 53.4495 35.5698 53.5818 35.391C53.6987 35.2263 53.7695 34.9815 53.7695 34.6944ZM52.5457 34.8121C52.5457 34.8733 52.5364 34.9486 52.5033 35.005C52.4564 35.0992 52.3341 35.1368 52.1318 35.1368H50.6541V34.4638H52.108C52.3057 34.4638 52.438 34.4967 52.5033 34.6191C52.5364 34.6662 52.5457 34.7415 52.5457 34.8121Z" fill="white"/>
<path d="M28.6628 27.0514L28.1525 25.4805L27.642 27.0514H25.9902L27.3265 28.0222L26.8162 29.5932L28.1525 28.6223L29.4887 29.5932L28.9783 28.0222L30.3146 27.0514H28.6628Z" fill="white"/>
<path d="M34.0442 25.4795L34.565 27.0504H36.2505L34.887 28.0213L35.4078 29.5922L34.0442 28.6213L32.6807 29.5922L33.2015 28.0213L31.8379 27.0504H33.5234L34.0442 25.4795Z" fill="white"/>
<path d="M40.4127 27.0504L39.8919 25.4795L39.3711 27.0504H37.6855L39.0492 28.0213L38.5283 29.5922L39.8919 28.6213L41.2555 29.5922L40.7346 28.0213L42.0982 27.0504H40.4127Z" fill="white"/>
<path d="M45.7356 25.4795L46.2565 27.0504H47.9419L46.5784 28.0213L47.0992 29.5922L45.7356 28.6213L44.3721 29.5922L44.8929 28.0213L43.5293 27.0504H45.2148L45.7356 25.4795Z" fill="white"/>
<path d="M52.1399 27.0504L51.6291 25.4795L51.1183 27.0504H49.4668L50.803 28.0213L50.2929 29.5922L51.6291 28.6213L52.9653 29.5922L52.4553 28.0213L53.7914 27.0504H52.1399Z" fill="white"/>
<path d="M73.5706 8.63274C74.059 7.39082 73.8467 5.96259 73.3967 4.76151C72.9229 3.49774 72.0983 2.2372 70.866 1.57251C70.8044 2.90443 71.2114 4.2202 71.656 5.40674C72.056 6.47389 72.546 7.61082 73.356 8.49336C73.4806 9.16197 73.576 9.82874 73.6429 10.4924C73.3744 9.79143 72.9398 9.15251 72.3967 8.63866C71.6975 7.97674 70.6567 7.46613 69.6806 7.76813C69.9667 8.84743 70.6183 9.8822 71.3906 10.608C71.9983 11.1794 72.8006 11.9114 73.7452 11.9402C73.7844 12.9172 73.7621 13.8853 73.6814 14.8402C73.5483 14.1414 73.2629 13.4834 72.8498 12.9934C72.2829 12.32 71.4421 11.4975 70.369 11.6351C70.4275 12.7276 70.8637 13.8469 71.4706 14.688C71.9521 15.3564 72.5891 16.2083 73.4929 16.4284C73.3483 17.3664 73.1467 18.289 72.8906 19.1917C72.8883 18.5005 72.736 17.822 72.4329 17.2777C72.006 16.5104 71.3406 15.5532 70.266 15.4784C70.1083 16.5501 70.3221 17.7217 70.7529 18.6536C71.0967 19.3984 71.556 20.3483 72.3921 20.7413C72.0406 21.7128 71.6252 22.6573 71.1483 23.5687C71.316 22.783 71.309 21.9551 71.1114 21.2101C70.8383 20.1834 70.1614 19.1047 69.0737 18.7918C68.689 19.9255 68.7421 21.1904 68.966 22.3426C69.1498 23.2913 69.5106 24.4054 70.3198 25.0217C69.7906 25.876 69.2052 26.696 68.566 27.4761C68.9098 26.711 69.0798 25.8742 68.9883 25.1081C68.8552 23.9924 68.5421 22.7991 67.4029 22.2045C66.756 23.3199 66.606 24.5712 66.5514 25.8071C66.5067 26.8064 66.6506 28.0388 67.3452 28.8517C66.5814 29.6451 65.7583 30.3877 64.879 31.0724C65.4467 30.3439 65.8444 29.489 65.9283 28.6437C66.0475 27.4491 65.9898 26.1342 64.929 25.2575C64.0229 26.2044 63.4814 27.599 63.2167 28.8102C62.9821 29.881 62.7375 31.1487 63.2952 32.2026C62.176 32.9335 60.9806 33.5774 59.7167 34.1228C60.606 33.4891 61.3337 32.6197 61.6806 31.722C62.1352 30.5455 62.416 29.1435 61.5314 27.9652C60.3452 28.7248 59.4737 30.0207 58.7867 31.2028C58.1975 32.2171 57.5875 33.617 57.8906 34.825C57.1906 35.0624 56.4729 35.2708 55.7383 35.4487L55.7821 35.629C56.519 35.4505 57.2398 35.2414 57.9421 35.0033C58.4344 36.4576 60.0467 36.9382 61.3506 37.1503C63.2083 37.4525 65.4206 36.867 67.0067 35.6872C66.1691 34.5042 64.4614 34.3842 63.1737 34.2937L63.1567 34.2925C61.746 34.1934 60.2198 34.3258 58.8014 34.6945C60.4398 34.0706 61.9737 33.286 63.3883 32.3637L63.4075 32.3944C64.1821 33.653 65.739 33.7023 66.9606 33.6227C68.6183 33.5149 70.5314 32.5073 71.6383 31.1144C70.5967 30.2007 69.059 30.4564 67.8667 30.6544L67.8606 30.6555C66.5306 30.8766 65.0775 31.3588 63.8575 32.1014C63.9737 32.01 64.0867 31.9133 64.1975 31.8118C65.3837 30.966 66.4775 30.02 67.4706 28.9884C67.4844 29.0022 67.4983 29.0157 67.5121 29.0292C68.4783 29.9931 69.8806 29.7388 70.976 29.4234C72.4452 29.0003 73.9683 27.7239 74.6983 26.2586C73.5667 25.6247 72.2144 26.147 71.1629 26.5602C70.0067 27.014 68.7844 27.7403 67.8444 28.6662C67.9414 28.5439 68.0344 28.416 68.1221 28.2837C68.9952 27.2978 69.7814 26.242 70.4721 25.1282L70.5021 25.1467L70.5098 25.1516C71.6014 25.854 72.8383 25.344 73.8183 24.8423C75.1483 24.1616 76.2175 22.6656 76.679 21.1944C75.499 20.8164 74.3337 21.5582 73.4275 22.1457C72.4352 22.7885 71.4306 23.7054 70.7414 24.757C70.7921 24.6533 70.8398 24.5471 70.8837 24.439C71.546 23.2834 72.1083 22.0704 72.5637 20.812L72.5875 20.82L72.5914 20.8215C73.5844 21.1974 74.6898 20.6107 75.4106 19.9674C76.4121 19.0726 77.1191 17.697 77.2844 16.353C76.2491 16.2189 75.2729 17.0201 74.606 17.7034C73.8383 18.4905 73.1483 19.4207 72.7244 20.4541C72.756 20.3414 72.7829 20.2268 72.8052 20.111C73.1906 18.9289 73.4829 17.7097 73.6752 16.4634L73.7044 16.4673C74.7506 16.6367 75.7183 15.8406 76.2967 15.0679C77.1106 13.9806 77.5298 12.4757 77.4244 11.1117C76.3791 11.185 75.5821 12.18 75.066 12.9851C74.4675 13.9175 73.9714 14.9728 73.7544 16.0769C73.7614 15.9886 73.7652 15.8998 73.7667 15.8107C73.926 14.542 73.9829 13.2474 73.9306 11.9367C74.9991 11.8993 75.7906 10.9073 76.1983 10.0276C76.7806 8.76936 76.8744 7.17874 76.486 5.83836C75.4683 6.12397 74.9006 7.29113 74.566 8.18966C74.1798 9.22566 73.9106 10.3557 73.9083 11.4791C73.8529 10.5367 73.7406 9.58666 73.5706 8.63274Z" fill="white"/>
</svg>
