<svg width="23" height="23" viewBox="0 0 23 23" fill="none" xmlns="http://www.w3.org/2000/svg">
<path d="M11.2492 22.6083C17.462 22.6083 22.4984 17.5718 22.4984 11.3591C22.4984 5.1463 17.462 0.109863 11.2492 0.109863C5.03644 0.109863 0 5.1463 0 11.3591C0 17.5718 5.03644 22.6083 11.2492 22.6083Z" fill="black"/>
<path d="M22.4976 11.3591C22.4976 5.14638 17.4619 0.109863 11.2492 0.109863C5.03652 0.109863 0 5.14638 0 11.3591C0 16.6343 3.63196 21.0613 8.5316 22.2772V14.7969H6.21189V11.3591H8.5316V9.87811C8.5316 6.0496 10.264 4.275 14.0233 4.275C14.7363 4.275 15.9658 4.41506 16.4688 4.55432V7.67061C16.203 7.64276 15.7422 7.62843 15.1692 7.62843C13.3246 7.62843 12.6124 8.32713 12.6124 10.1439V11.3599H16.2865L15.6555 14.7977H12.6124V22.5263C18.1813 21.8539 22.4976 17.111 22.4976 11.3599V11.3591Z" fill="white"/>
</svg>
