<svg width="18" height="19" viewBox="0 0 18 19" fill="none" xmlns="http://www.w3.org/2000/svg">
<g clip-path="url(#clip0_91_271)">
<path d="M0.494456 2.0509C0.344456 2.3134 0.359456 2.6734 0.426956 3.0484C1.10196 6.8359 2.93196 10.2259 5.50446 12.8059C8.07696 15.3859 11.5645 17.3059 15.232 17.8609C15.607 17.9209 15.967 17.9434 16.2295 17.7934C16.3195 17.7409 16.4395 17.6434 16.4695 17.4934L17.0695 14.7934C17.1145 14.5609 17.032 14.3209 16.8445 14.1259C16.7545 14.0359 14.707 13.2934 13.7395 12.8284C13.342 12.6334 12.877 12.7459 12.682 13.0684L12.307 13.7134C12.1795 13.9309 11.962 14.0959 11.722 14.1559C10.777 14.3959 7.85196 11.7034 7.21446 11.0659C6.55446 10.4059 3.77196 7.4059 4.01196 6.4609C4.07196 6.2134 4.23696 6.0034 4.45446 5.8759C5.01696 5.5459 4.86696 5.6359 5.09196 5.5009C5.42196 5.3059 5.53446 4.8409 5.33946 4.4434C4.91946 3.5809 4.67196 2.7709 4.39446 1.8484C4.27446 1.4434 3.88446 1.1209 3.49446 1.2034C3.49446 1.2034 3.44946 1.2109 0.779456 1.8109C0.636956 1.8409 0.539456 1.9534 0.486956 2.0509H0.494456Z" stroke="white" stroke-width="0.75" stroke-miterlimit="10"/>
<path d="M8.72266 3.43066C11.6702 3.43066 14.0552 5.81566 14.0552 8.76316" stroke="white" stroke-width="0.75" stroke-linecap="round" stroke-linejoin="round"/>
<path d="M8.72266 1.17334C12.9152 1.17334 16.3127 4.57084 16.3127 8.76334" stroke="white" stroke-width="0.75" stroke-linecap="round" stroke-linejoin="round"/>
</g>
<defs>
<clipPath id="clip0_91_271">
<rect width="17.4675" height="17.4825" fill="white" transform="translate(0 0.79834)"/>
</clipPath>
</defs>
</svg>
