<svg width="14" height="19" viewBox="0 0 14 19" fill="none" xmlns="http://www.w3.org/2000/svg">
<g clip-path="url(#clip0_91_276)">
<path d="M13.375 7.24584C13.375 10.9883 9.08501 15.9383 7.54751 17.6033C7.25501 17.9183 6.75251 17.9183 6.45251 17.6033C4.90751 15.9458 0.61751 11.0108 0.62501 7.24584C0.62501 3.75834 3.48251 0.92334 7.00001 0.92334C10.5175 0.92334 13.375 3.75834 13.375 7.24584Z" stroke="#EEECFF" stroke-width="0.75" stroke-linecap="round" stroke-linejoin="round"/>
<path d="M7 10.3506C8.65685 10.3506 10 9.00744 10 7.35059C10 5.69373 8.65685 4.35059 7 4.35059C5.34315 4.35059 4 5.69373 4 7.35059C4 9.00744 5.34315 10.3506 7 10.3506Z" stroke="#EEECFF" stroke-width="0.75" stroke-linecap="round" stroke-linejoin="round"/>
</g>
<defs>
<clipPath id="clip0_91_276">
<rect width="13.5" height="17.67" fill="white" transform="translate(0.25 0.54834)"/>
</clipPath>
</defs>
</svg>
