<svg width="78" height="78" viewBox="0 0 78 78" fill="none" xmlns="http://www.w3.org/2000/svg">
<path d="M77.2359 39.012C77.2359 17.7238 59.9784 0.466309 38.6902 0.466309C17.402 0.466309 0.144531 17.7238 0.144531 39.012C0.144531 60.3002 17.402 77.5577 38.6902 77.5577C59.9784 77.5577 77.2359 60.3002 77.2359 39.012Z" fill="#292833"/>
<path d="M70.147 39.0117C70.147 21.6386 56.0633 7.55493 38.6902 7.55493C21.3171 7.55493 7.2334 21.6386 7.2334 39.0117C7.2334 56.3849 21.3171 70.4686 38.6902 70.4686C56.0633 70.4686 70.147 56.3849 70.147 39.0117Z" stroke="white" stroke-opacity="0.9" stroke-width="0.886107" stroke-dasharray="3.77 3.77"/>
<path d="M55.9697 39.8977L30.0511 54.8619L30.0511 24.9336L55.9697 39.8977Z" fill="white"/>
</svg>
