<svg width="56" height="56" viewBox="0 0 56 56" fill="none" xmlns="http://www.w3.org/2000/svg">
<rect width="56" height="56" rx="28" fill="#88DBFD"/>
<path fill-rule="evenodd" clip-rule="evenodd" d="M25.2246 22.452V22.452C25.2246 20.92 26.4666 19.677 27.9996 19.677V19.677C29.5316 19.677 30.7746 20.919 30.7746 22.452V22.452C30.7746 23.984 29.5326 25.227 27.9996 25.227V25.227C26.4666 25.225 25.2246 23.983 25.2246 22.452Z" stroke="white" stroke-width="1.5" stroke-linecap="round" stroke-linejoin="round"/>
<path fill-rule="evenodd" clip-rule="evenodd" d="M18.5 33.5479V33.5479C18.5 32.0159 19.742 30.7729 21.275 30.7729V30.7729C22.807 30.7729 24.05 32.0149 24.05 33.5479V33.5479C24.049 35.0799 22.808 36.3229 21.275 36.3229V36.3229C19.742 36.3229 18.5 35.0809 18.5 33.5479Z" stroke="white" stroke-width="1.5" stroke-linecap="round" stroke-linejoin="round"/>
<path fill-rule="evenodd" clip-rule="evenodd" d="M31.9512 33.5479V33.5479C31.9512 32.0159 33.1932 30.7729 34.7262 30.7729V30.7729C36.2582 30.7729 37.5012 32.0149 37.5012 33.5479V33.5479C37.5012 35.0799 36.2592 36.3229 34.7262 36.3229V36.3229C33.1922 36.3229 31.9512 35.0809 31.9512 33.5479V33.5479Z" stroke="white" stroke-width="1.5" stroke-linecap="round" stroke-linejoin="round"/>
<path d="M24.4905 27.9199L22.4805 31.0599" stroke="white" stroke-width="1.5" stroke-linecap="round" stroke-linejoin="round"/>
<path d="M29.5 24.78L31.51 27.92" stroke="white" stroke-width="1.5" stroke-linecap="round" stroke-linejoin="round"/>
<path d="M31.95 33.55H28" stroke="white" stroke-width="1.5" stroke-linecap="round" stroke-linejoin="round"/>
</svg>
