<svg width="71" height="71" viewBox="0 0 71 71" fill="none" xmlns="http://www.w3.org/2000/svg">
<g clip-path="url(#clip0_91_175)">
<path d="M35.8766 46.0914C41.6269 46.0914 46.2884 41.4298 46.2884 35.6796C46.2884 29.9293 41.6269 25.2678 35.8766 25.2678C30.1263 25.2678 25.4648 29.9293 25.4648 35.6796C25.4648 41.4298 30.1263 46.0914 35.8766 46.0914Z" fill="#292833"/>
<path d="M36.3207 2.45044H35.4346V68.9085H36.3207V2.45044Z" fill="#292833" stroke="#292833" stroke-width="3.54443" stroke-miterlimit="10"/>
<path d="M49.0313 5.15939L48.2129 4.81958L22.7269 66.1966L23.5453 66.5364L49.0313 5.15939Z" fill="#292833" stroke="#292833" stroke-width="3.54443" stroke-miterlimit="10"/>
<path d="M66.7754 23.4565L66.4385 22.637L4.97285 47.9085L5.30981 48.7281L66.7754 23.4565Z" fill="#292833" stroke="#292833" stroke-width="3.54443" stroke-miterlimit="10"/>
<path d="M66.3478 48.94L66.6904 48.1228L5.40273 22.4227L5.06007 23.2399L66.3478 48.94Z" fill="#292833" stroke="#292833" stroke-width="3.54443" stroke-miterlimit="10"/>
<path d="M47.9956 66.6245L48.8164 66.2905L23.7703 4.73269L22.9495 5.06664L47.9956 66.6245Z" fill="#292833" stroke="#292833" stroke-width="3.54443" stroke-miterlimit="10"/>
<path d="M59.6871 12.4977L59.0605 11.8711L12.0676 58.864L12.6942 59.4906L59.6871 12.4977Z" fill="#292833" stroke="#292833" stroke-width="3.54443" stroke-miterlimit="10"/>
<path d="M69.1064 36.1224V35.2363L2.64838 35.2363V36.1224L69.1064 36.1224Z" fill="#292833" stroke="#292833" stroke-width="3.54443" stroke-miterlimit="10"/>
<path d="M59.059 59.4894L59.6855 58.8628L12.6926 11.8698L12.066 12.4964L59.059 59.4894Z" fill="#292833" stroke="#292833" stroke-width="3.54443" stroke-miterlimit="10"/>
</g>
<defs>
<clipPath id="clip0_91_175">
<rect width="70.0025" height="70.0025" fill="white" transform="translate(0.875977 0.678223)"/>
</clipPath>
</defs>
</svg>
