<svg width="60" height="60" viewBox="0 0 60 60" fill="none" xmlns="http://www.w3.org/2000/svg">
<rect width="60" height="60" rx="8" fill="white" fill-opacity="0.12"/>
<path d="M40 18H20C19.4696 18 18.9609 18.2107 18.5858 18.5858C18.2107 18.9609 18 19.4696 18 20V40C18 40.5304 18.2107 41.0391 18.5858 41.4142C18.9609 41.7893 19.4696 42 20 42H40C40.5304 42 41.0391 41.7893 41.4142 41.4142C41.7893 41.0391 42 40.5304 42 40V20C42 19.4696 41.7893 18.9609 41.4142 18.5858C41.0391 18.2107 40.5304 18 40 18ZM30 37C27.2425 37 25 35.2062 25 33C25 32.7348 25.1054 32.4804 25.2929 32.2929C25.4804 32.1054 25.7348 32 26 32C26.2652 32 26.5196 32.1054 26.7071 32.2929C26.8946 32.4804 27 32.7348 27 33C27 34.0837 28.375 35 30 35C31.625 35 33 34.0837 33 33C33 31.815 31.9237 31.375 29.64 30.7175C27.6713 30.15 25.2225 29.4438 25.2225 27C25.2225 24.72 27.2762 23 30 23C31.965 23 33.6475 23.9125 34.39 25.375C34.4541 25.4926 34.4939 25.6218 34.5071 25.755C34.5202 25.8883 34.5065 26.0228 34.4667 26.1507C34.4269 26.2785 34.3619 26.3971 34.2754 26.4993C34.189 26.6015 34.0828 26.6853 33.9634 26.7458C33.8439 26.8062 33.7135 26.8421 33.5799 26.8512C33.4463 26.8603 33.3123 26.8425 33.1857 26.7988C33.0592 26.7551 32.9426 26.6865 32.8431 26.5969C32.7436 26.5074 32.663 26.3988 32.6063 26.2775C32.205 25.4925 31.2063 25 30 25C28.4163 25 27.2225 25.86 27.2225 27C27.2225 27.875 28.3475 28.2625 30.1938 28.795C32.2225 29.375 35 30.1812 35 33C35 35.2062 32.7575 37 30 37Z" fill="white"/>
</svg>
