<svg width="60" height="60" viewBox="0 0 60 60" fill="none" xmlns="http://www.w3.org/2000/svg">
<rect width="60" height="60" rx="8" fill="white" fill-opacity="0.12"/>
<path d="M28.7344 35.3573V45.5667C28.735 45.6552 28.7168 45.7428 28.681 45.8237C28.6452 45.9046 28.5926 45.977 28.5267 46.0361C28.4608 46.0952 28.3831 46.1396 28.2988 46.1664C28.2145 46.1933 28.1254 46.2019 28.0375 46.1917C25.1491 45.837 22.4085 44.7151 20.1004 42.9428C17.7923 41.1705 16.0009 38.8124 14.9125 36.1136C14.88 36.0315 14.8652 35.9435 14.8691 35.8553C14.873 35.7672 14.8956 35.6808 14.9353 35.602C14.975 35.5232 15.031 35.4537 15.0995 35.398C15.168 35.3424 15.2475 35.3019 15.3328 35.2792L25.1906 32.6323C25.3168 32.5992 25.4502 32.6064 25.5721 32.6529C25.694 32.6994 25.7983 32.7829 25.8703 32.8917C26.4672 33.7551 27.3188 34.4107 28.3063 34.7667C28.4305 34.8079 28.5386 34.8871 28.6154 34.9931C28.6922 35.099 28.7338 35.2264 28.7344 35.3573ZM29.9938 13.8042C29.8288 13.803 29.6653 13.8344 29.5125 13.8966C29.3598 13.9589 29.2209 14.0508 29.1038 14.167C28.9867 14.2832 28.8938 14.4214 28.8304 14.5737C28.767 14.7259 28.7344 14.8892 28.7344 15.0542V23.8042C28.7319 24.133 28.86 24.4493 29.0906 24.6836C29.3211 24.918 29.6353 25.0513 29.9641 25.0542C31.1446 25.0491 32.2889 25.4619 33.1943 26.2195C34.0997 26.977 34.7078 28.0306 34.911 29.1935C35.1142 30.3564 34.8994 31.5537 34.3046 32.5735C33.7097 33.5932 32.7733 34.3696 31.6609 34.7651C31.5368 34.8067 31.4288 34.8862 31.3522 34.9925C31.2757 35.0987 31.2345 35.2264 31.2344 35.3573V45.5667C31.2338 45.655 31.252 45.7425 31.2877 45.8233C31.3234 45.9041 31.3759 45.9764 31.4416 46.0355C31.5073 46.0945 31.5847 46.139 31.6689 46.1659C31.753 46.1928 31.8419 46.2016 31.9297 46.1917C36.0476 45.7046 39.8236 43.6618 42.4844 40.4814C45.1452 37.3011 46.4895 33.2238 46.2421 29.0846C45.9947 24.9453 44.1742 21.0572 41.1535 18.2165C38.1328 15.3757 34.1404 13.7972 29.9938 13.8042ZM24.9938 29.662C25.0519 28.9236 25.2734 28.2074 25.6422 27.5651V27.5542C25.7661 27.3403 25.8237 27.0944 25.8078 26.8477C25.792 26.601 25.7034 26.3646 25.5531 26.1682C25.448 26.0332 25.3174 25.9201 25.1688 25.8354L17.6172 21.4698C17.4749 21.3878 17.3179 21.3346 17.155 21.3133C16.9922 21.2919 16.8267 21.3029 16.6681 21.3456C16.5095 21.3883 16.3608 21.4618 16.2307 21.5619C16.1005 21.662 15.9913 21.7868 15.9094 21.9292C14.0908 25.0788 13.3801 28.747 13.8906 32.3479C13.9027 32.4358 13.9333 32.5201 13.9805 32.5953C14.0276 32.6704 14.0902 32.7347 14.1641 32.7837C14.238 32.8328 14.3215 32.8656 14.4091 32.8799C14.4966 32.8942 14.5862 32.8897 14.6719 32.8667L24.55 30.2104C24.6724 30.1766 24.7814 30.1057 24.8619 30.0076C24.9425 29.9094 24.9907 29.7887 25 29.662H24.9938Z" fill="white"/>
</svg>
