<svg width="60" height="60" viewBox="0 0 60 60" fill="none" xmlns="http://www.w3.org/2000/svg">
<rect width="60" height="60" rx="8" fill="white" fill-opacity="0.12"/>
<path d="M39 17H21C20.4696 17 19.9609 17.2107 19.5858 17.5858C19.2107 17.9609 19 18.4696 19 19V41C19 41.5304 19.2107 42.0391 19.5858 42.4142C19.9609 42.7893 20.4696 43 21 43H39C39.5304 43 40.0391 42.7893 40.4142 42.4142C40.7893 42.0391 41 41.5304 41 41V19C41 18.4696 40.7893 17.9609 40.4142 17.5858C40.0391 17.2107 39.5304 17 39 17ZM25 39C24.7033 39 24.4133 38.912 24.1666 38.7472C23.92 38.5824 23.7277 38.3481 23.6142 38.074C23.5006 37.7999 23.4709 37.4983 23.5288 37.2074C23.5867 36.9164 23.7296 36.6491 23.9393 36.4393C24.1491 36.2296 24.4164 36.0867 24.7074 36.0288C24.9983 35.9709 25.2999 36.0007 25.574 36.1142C25.8481 36.2277 26.0824 36.42 26.2472 36.6666C26.412 36.9133 26.5 37.2033 26.5 37.5C26.5 37.8978 26.342 38.2794 26.0607 38.5607C25.7794 38.842 25.3978 39 25 39ZM25 34C24.7033 34 24.4133 33.912 24.1666 33.7472C23.92 33.5824 23.7277 33.3481 23.6142 33.074C23.5006 32.7999 23.4709 32.4983 23.5288 32.2074C23.5867 31.9164 23.7296 31.6491 23.9393 31.4393C24.1491 31.2296 24.4164 31.0867 24.7074 31.0288C24.9983 30.9709 25.2999 31.0007 25.574 31.1142C25.8481 31.2277 26.0824 31.42 26.2472 31.6666C26.412 31.9133 26.5 32.2033 26.5 32.5C26.5 32.8978 26.342 33.2794 26.0607 33.5607C25.7794 33.842 25.3978 34 25 34ZM30 39C29.7033 39 29.4133 38.912 29.1666 38.7472C28.92 38.5824 28.7277 38.3481 28.6142 38.074C28.5006 37.7999 28.4709 37.4983 28.5288 37.2074C28.5867 36.9164 28.7296 36.6491 28.9393 36.4393C29.1491 36.2296 29.4164 36.0867 29.7074 36.0288C29.9983 35.9709 30.2999 36.0007 30.574 36.1142C30.8481 36.2277 31.0824 36.42 31.2472 36.6666C31.412 36.9133 31.5 37.2033 31.5 37.5C31.5 37.8978 31.342 38.2794 31.0607 38.5607C30.7794 38.842 30.3978 39 30 39ZM30 34C29.7033 34 29.4133 33.912 29.1666 33.7472C28.92 33.5824 28.7277 33.3481 28.6142 33.074C28.5006 32.7999 28.4709 32.4983 28.5288 32.2074C28.5867 31.9164 28.7296 31.6491 28.9393 31.4393C29.1491 31.2296 29.4164 31.0867 29.7074 31.0288C29.9983 30.9709 30.2999 31.0007 30.574 31.1142C30.8481 31.2277 31.0824 31.42 31.2472 31.6666C31.412 31.9133 31.5 32.2033 31.5 32.5C31.5 32.8978 31.342 33.2794 31.0607 33.5607C30.7794 33.842 30.3978 34 30 34ZM35 39C34.7033 39 34.4133 38.912 34.1666 38.7472C33.92 38.5824 33.7277 38.3481 33.6142 38.074C33.5007 37.7999 33.4709 37.4983 33.5288 37.2074C33.5867 36.9164 33.7296 36.6491 33.9393 36.4393C34.1491 36.2296 34.4164 36.0867 34.7074 36.0288C34.9983 35.9709 35.2999 36.0007 35.574 36.1142C35.8481 36.2277 36.0824 36.42 36.2472 36.6666C36.412 36.9133 36.5 37.2033 36.5 37.5C36.5 37.8978 36.342 38.2794 36.0607 38.5607C35.7794 38.842 35.3978 39 35 39ZM35 34C34.7033 34 34.4133 33.912 34.1666 33.7472C33.92 33.5824 33.7277 33.3481 33.6142 33.074C33.5007 32.7999 33.4709 32.4983 33.5288 32.2074C33.5867 31.9164 33.7296 31.6491 33.9393 31.4393C34.1491 31.2296 34.4164 31.0867 34.7074 31.0288C34.9983 30.9709 35.2999 31.0007 35.574 31.1142C35.8481 31.2277 36.0824 31.42 36.2472 31.6666C36.412 31.9133 36.5 32.2033 36.5 32.5C36.5 32.8978 36.342 33.2794 36.0607 33.5607C35.7794 33.842 35.3978 34 35 34ZM37 27C37 27.2652 36.8946 27.5196 36.7071 27.7071C36.5196 27.8946 36.2652 28 36 28H24C23.7348 28 23.4804 27.8946 23.2929 27.7071C23.1054 27.5196 23 27.2652 23 27V22C23 21.7348 23.1054 21.4804 23.2929 21.2929C23.4804 21.1054 23.7348 21 24 21H36C36.2652 21 36.5196 21.1054 36.7071 21.2929C36.8946 21.4804 37 21.7348 37 22V27Z" fill="white"/>
</svg>
