<svg width="60" height="60" viewBox="0 0 60 60" fill="none" xmlns="http://www.w3.org/2000/svg">
<rect width="60" height="60" rx="8" fill="white" fill-opacity="0.12"/>
<path d="M37 25.1962V24.5C37 21.365 32.2712 19 26 19C19.7288 19 15 21.365 15 24.5V29.5C15 32.1112 18.2812 34.1863 23 34.8075V35.5C23 38.635 27.7288 41 34 41C40.2712 41 45 38.635 45 35.5V30.5C45 27.9125 41.8225 25.835 37 25.1962ZM21 32.3587C18.5512 31.675 17 30.5487 17 29.5V27.7413C18.02 28.4637 19.3863 29.0463 21 29.4375V32.3587ZM31 29.4375C32.6138 29.0463 33.98 28.4637 35 27.7413V29.5C35 30.5487 33.4487 31.675 31 32.3587V29.4375ZM29 38.3587C26.5513 37.675 25 36.5487 25 35.5V34.9788C25.3287 34.9913 25.6613 35 26 35C26.485 35 26.9587 34.9837 27.4237 34.9562C27.9403 35.1412 28.4665 35.2981 29 35.4263V38.3587ZM29 32.7812C28.0068 32.928 27.004 33.0011 26 33C24.996 33.0011 23.9932 32.928 23 32.7812V29.8075C23.9947 29.9371 24.9969 30.0014 26 30C27.0031 30.0014 28.0053 29.9371 29 29.8075V32.7812ZM37 38.7812C35.0106 39.0729 32.9894 39.0729 31 38.7812V35.8C31.9944 35.9337 32.9967 36.0005 34 36C35.0031 36.0014 36.0053 35.9371 37 35.8075V38.7812ZM43 35.5C43 36.5487 41.4487 37.675 39 38.3587V35.4375C40.6138 35.0462 41.98 34.4637 43 33.7412V35.5Z" fill="white"/>
</svg>
