<svg width="24" height="23" viewBox="0 0 24 23" fill="none" xmlns="http://www.w3.org/2000/svg">
<path d="M11.9597 22.6083C18.1724 22.6083 23.2089 17.5718 23.2089 11.3591C23.2089 5.1463 18.1724 0.109863 11.9597 0.109863C5.74689 0.109863 0.710449 5.1463 0.710449 11.3591C0.710449 17.5718 5.74689 22.6083 11.9597 22.6083Z" fill="white"/>
<g clip-path="url(#clip0_1212_365)">
<path d="M15.3354 4.98047H8.58447C6.6942 4.98047 5.20898 6.46568 5.20898 8.35596V15.1069C5.20898 16.9972 6.6942 18.4824 8.58447 18.4824H15.3354C17.2257 18.4824 18.7109 16.9972 18.7109 15.1069V8.35596C18.7109 6.46568 17.2257 4.98047 15.3354 4.98047ZM17.3607 15.1069C17.3607 16.2546 16.4831 17.1322 15.3354 17.1322H8.58447C7.43681 17.1322 6.55918 16.2546 6.55918 15.1069V8.35596C6.55918 7.20829 7.43681 6.33066 8.58447 6.33066H15.3354C16.4831 6.33066 17.3607 7.20829 17.3607 8.35596V15.1069Z" fill="black"/>
<path d="M11.9604 8.35596C10.0702 8.35596 8.58496 9.84117 8.58496 11.7314C8.58496 13.6217 10.0702 15.1069 11.9604 15.1069C13.8507 15.1069 15.3359 13.6217 15.3359 11.7314C15.3359 9.84117 13.8507 8.35596 11.9604 8.35596ZM11.9604 13.7567C10.8128 13.7567 9.93516 12.8791 9.93516 11.7314C9.93516 10.5838 10.8128 9.70615 11.9604 9.70615C13.1081 9.70615 13.9857 10.5838 13.9857 11.7314C13.9857 12.8791 13.1081 13.7567 11.9604 13.7567Z" fill="black"/>
<path d="M15.3357 9.03086C15.7086 9.03086 16.0108 8.72861 16.0108 8.35576C16.0108 7.98292 15.7086 7.68066 15.3357 7.68066C14.9629 7.68066 14.6606 7.98292 14.6606 8.35576C14.6606 8.72861 14.9629 9.03086 15.3357 9.03086Z" fill="black"/>
</g>
<defs>
<clipPath id="clip0_1212_365">
<rect width="13.502" height="13.502" fill="white" transform="translate(5.2085 4.98047)"/>
</clipPath>
</defs>
</svg>
