<svg width="59" height="75" viewBox="0 0 59 75" fill="none" xmlns="http://www.w3.org/2000/svg">
<g clip-path="url(#clip0_705_884)">
<path d="M30.9461 65.8453H1.01172V0.945312H48.6987V27.9405" stroke="white" stroke-width="1.85756" stroke-linecap="round" stroke-linejoin="round"/>
<path d="M6.83984 11.5929L9.34493 14.098L14.2496 7.75537" stroke="white" stroke-width="1.85756" stroke-linecap="round" stroke-linejoin="round"/>
<path d="M17.9453 12.1143H41.6486" stroke="white" stroke-width="1.85756" stroke-linecap="round" stroke-linejoin="round"/>
<path d="M6.83984 26.5991L9.34493 29.1072L14.2496 22.7646" stroke="white" stroke-width="1.85756" stroke-linecap="round" stroke-linejoin="round"/>
<path d="M17.9453 27.1206H41.6486" stroke="white" stroke-width="1.85756" stroke-linecap="round" stroke-linejoin="round"/>
<path d="M6.83984 56.6178L9.34493 59.1229L14.2496 52.7803" stroke="white" stroke-width="1.85756" stroke-linecap="round" stroke-linejoin="round"/>
<path d="M17.9453 57.1392H30.3743" stroke="white" stroke-width="1.85756" stroke-linecap="round" stroke-linejoin="round"/>
<path d="M6.83984 41.6085L9.34493 44.1136L14.2496 37.771" stroke="white" stroke-width="1.85756" stroke-linecap="round" stroke-linejoin="round"/>
<path d="M17.9453 42.1299H26.1449" stroke="white" stroke-width="1.85756" stroke-linecap="round" stroke-linejoin="round"/>
<path d="M57.6071 43.7306C57.6071 45.0359 56.1601 46.094 55.7773 47.2727C55.3824 48.4935 55.916 50.1968 55.1774 51.2127C54.4298 52.2376 52.6392 52.2527 51.6142 53.0003C50.5983 53.7388 50.0346 55.4421 48.8137 55.84C47.638 56.2228 46.185 55.1888 44.8797 55.1888C43.5744 55.1888 42.1214 56.2228 40.9458 55.84C39.7249 55.4451 39.1611 53.7388 38.1452 53.0003C37.1203 52.2527 35.3267 52.2376 34.5821 51.2127C33.8435 50.1968 34.3771 48.4935 33.9822 47.2727C33.5993 46.097 32.1523 45.0359 32.1523 43.7306C32.1523 42.4253 33.5993 41.3672 33.9822 40.1885C34.3771 38.9676 33.8435 37.2644 34.5821 36.2485C35.3297 35.2235 37.1203 35.2085 38.1452 34.4609C39.1611 33.7223 39.7249 32.0191 40.9458 31.6212C42.1214 31.2383 43.5744 32.2723 44.8797 32.2723C46.185 32.2723 47.638 31.2383 48.8137 31.6212C50.0346 32.0161 50.5983 33.7223 51.6142 34.4609C52.6392 35.2085 54.4328 35.2235 55.1774 36.2485C55.916 37.2644 55.3824 38.9676 55.7773 40.1885C56.1601 41.3642 57.6071 42.4253 57.6071 43.7306Z" stroke="white" stroke-width="1.85756" stroke-linecap="round" stroke-linejoin="round"/>
<path d="M52.5749 56.7959V73.4392L44.8818 67.4282L37.1797 73.4392V56.7959" stroke="white" stroke-width="1.85756" stroke-linecap="round" stroke-linejoin="round"/>
<path d="M45.2655 37.8795L46.9084 41.2075C46.9717 41.3341 47.0893 41.4216 47.228 41.4397L50.8997 41.9732C51.2494 42.0245 51.388 42.4525 51.1348 42.6997L48.479 45.2892C48.3795 45.3857 48.3343 45.5274 48.3554 45.666L48.9824 49.3227C49.0427 49.6694 48.678 49.9346 48.3645 49.7718L45.0816 48.0445C44.958 47.9782 44.8103 47.9782 44.6867 48.0445L41.4039 49.7718C41.0904 49.9346 40.7286 49.6724 40.7859 49.3227L41.4129 45.666C41.437 45.5274 41.3918 45.3887 41.2893 45.2892L38.6335 42.6997C38.3803 42.4525 38.519 42.0245 38.8687 41.9732L42.5404 41.4397C42.679 41.4186 42.7996 41.3311 42.8599 41.2075L44.5028 37.8795C44.6596 37.563 45.1088 37.563 45.2655 37.8795Z" stroke="white" stroke-width="1.85756" stroke-linecap="round" stroke-linejoin="round"/>
</g>
<defs>
<clipPath id="clip0_705_884">
<rect width="58.4037" height="74.3024" fill="white" transform="translate(0.109375 0.0410156)"/>
</clipPath>
</defs>
</svg>
