<svg width="67" height="75" viewBox="0 0 67 75" fill="none" xmlns="http://www.w3.org/2000/svg">
<g clip-path="url(#clip0_705_861)">
<path d="M40.1953 8.42822H47.3573V33.0115" stroke="white" stroke-width="1.85756" stroke-linecap="round" stroke-linejoin="round"/>
<path d="M47.3569 67.399V71.083H1.01562V8.42822H8.43813" stroke="white" stroke-width="1.85756" stroke-linecap="round" stroke-linejoin="round"/>
<path d="M19.4336 21.8506H42.932" stroke="white" stroke-width="1.85756" stroke-linecap="round" stroke-linejoin="round"/>
<path d="M19.1133 27.2295H35.4754" stroke="white" stroke-width="1.85756" stroke-linecap="round" stroke-linejoin="round"/>
<path d="M19.4336 56.3267H21.6492" stroke="white" stroke-width="1.85756" stroke-linecap="round" stroke-linejoin="round"/>
<path d="M19.1133 61.7051H24.1828" stroke="white" stroke-width="1.85756" stroke-linecap="round" stroke-linejoin="round"/>
<path d="M19.4336 44.4673H21.3629" stroke="white" stroke-width="1.85756" stroke-linecap="round" stroke-linejoin="round"/>
<path d="M19.1133 39.0889H23.6103" stroke="white" stroke-width="1.85756" stroke-linecap="round" stroke-linejoin="round"/>
<path d="M14.3793 20.2817H5.86328V28.7977H14.3793V20.2817Z" stroke="white" stroke-width="1.85756" stroke-linecap="round" stroke-linejoin="round"/>
<path d="M14.3793 37.54H5.86328V46.056H14.3793V37.54Z" stroke="white" stroke-width="1.85756" stroke-linecap="round" stroke-linejoin="round"/>
<path d="M14.3793 54.5117H5.86328V63.0277H14.3793V54.5117Z" stroke="white" stroke-width="1.85756" stroke-linecap="round" stroke-linejoin="round"/>
<path d="M29.1236 4.66411C28.5883 2.50291 26.6418 0.899902 24.3174 0.899902C21.9931 0.899902 20.0437 2.50291 19.5112 4.66411H14.1641V12.7765H34.4708V4.66411H29.1236Z" stroke="white" stroke-width="1.85756" stroke-linecap="round" stroke-linejoin="round"/>
<path d="M61.6952 65.693L65.1674 68.8961C66.2122 69.8579 66.2781 71.4867 65.3134 72.5287L65.1989 72.6517C64.2371 73.6966 62.6083 73.7624 61.5664 72.7977L50.7031 62.7761L54.3042 58.8716L56.7488 61.1272L61.6952 65.6901V65.693Z" stroke="white" stroke-width="1.85756" stroke-linecap="round" stroke-linejoin="round"/>
<path d="M49.1717 60.3312L47.125 58.4419" stroke="white" stroke-width="1.85756" stroke-linecap="round" stroke-linejoin="round"/>
<path d="M51.5832 57.4804L49.5508 55.6055" stroke="white" stroke-width="1.85756" stroke-linecap="round" stroke-linejoin="round"/>
<path d="M51.2327 51.6028C52.8945 44.5619 48.5339 37.507 41.4931 35.8452C34.4522 34.1834 27.3973 38.544 25.7355 45.5849C24.0737 52.6258 28.4343 59.6806 35.4752 61.3424C42.516 63.0042 49.5709 58.6436 51.2327 51.6028Z" stroke="white" stroke-width="1.85756" stroke-linecap="round" stroke-linejoin="round"/>
<path d="M31.6484 49.0443L37.0157 54.2198L45.3112 42.2144" stroke="white" stroke-width="1.85756" stroke-linecap="round" stroke-linejoin="round"/>
</g>
<defs>
<clipPath id="clip0_705_861">
<rect width="66.6995" height="74.3024" fill="white" transform="translate(0.152344 0.0410156)"/>
</clipPath>
</defs>
</svg>
