<svg width="75" height="76" viewBox="0 0 75 76" fill="none" xmlns="http://www.w3.org/2000/svg">
<g clip-path="url(#clip0_705_958)">
<path d="M11.1109 63.2387C4.94976 56.7151 1.17578 47.9182 1.17578 38.2406C1.17578 18.1277 17.4817 1.82178 37.5946 1.82178C57.7075 1.82178 74.0135 18.1277 74.0135 38.2406C74.0135 48.1608 70.0478 57.1524 63.6141 63.721" stroke="white" stroke-width="1.85756" stroke-linecap="round" stroke-linejoin="round"/>
<path d="M12.7574 53.0817C12.6196 52.9619 12.398 52.5875 12.1374 52.0902C10.8944 49.7001 10.2714 47.0373 10.2714 44.3416V42.7062C10.2714 39.744 9.83106 36.7967 8.96245 33.9632L8.35142 31.9714C8.07886 31.0788 8.15673 29.6441 8.52215 28.7875C9.23202 27.1281 9.01337 25.2201 7.94707 23.7645L5.67969 20.6704" stroke="white" stroke-width="1.85756" stroke-linecap="round" stroke-linejoin="round"/>
<path d="M23.0344 4.85303L25.2539 9.11822C26.2123 10.9573 26.7125 13 26.7125 15.0757C26.7125 16.2648 27.677 17.2293 28.8661 17.2293C30.7111 17.2293 32.3136 18.4962 32.7389 20.2904C32.9815 21.3118 32.652 22.387 31.8793 23.0969L30.9687 23.9326C28.1562 26.5144 24.8795 28.5362 21.3062 29.8871L18.7482 30.8545C17.9096 31.172 17.3555 31.9717 17.3555 32.8673" stroke="white" stroke-width="1.85756" stroke-linecap="round" stroke-linejoin="round"/>
<path d="M61.1094 58.2335L62.3584 56.9335C62.5501 56.7359 62.6879 56.4932 62.7627 56.2297L64.1405 51.3415C65.0271 48.2025 64.3532 44.8299 62.3344 42.269L62.3105 42.239C61.99 41.8347 61.8851 41.2985 62.0289 40.8013C63.3498 36.2516 67.5611 33.1545 72.2995 33.2563L73.6773 33.2863" stroke="white" stroke-width="1.85756" stroke-linecap="round" stroke-linejoin="round"/>
<path d="M59.7295 9.32764L51.6484 14.126" stroke="white" stroke-width="1.85756" stroke-linecap="round" stroke-linejoin="round"/>
<path d="M22.1094 69.4237V47.0435" stroke="white" stroke-width="1.85756" stroke-linecap="round" stroke-linejoin="round"/>
<path d="M28.375 47.0435V69.4237" stroke="white" stroke-width="1.85756" stroke-linecap="round" stroke-linejoin="round"/>
<path d="M47.4844 69.4237V47.0435" stroke="white" stroke-width="1.85756" stroke-linecap="round" stroke-linejoin="round"/>
<path d="M53.7383 47.0435V69.4237" stroke="white" stroke-width="1.85756" stroke-linecap="round" stroke-linejoin="round"/>
<path d="M16.0664 46.8188H59.1197" stroke="white" stroke-width="1.85756" stroke-linecap="round" stroke-linejoin="round"/>
<path d="M19.0625 42.1372H56.1253" stroke="white" stroke-width="1.85756" stroke-linecap="round" stroke-linejoin="round"/>
<path d="M16.0664 69.6484H59.1197" stroke="white" stroke-width="1.85756" stroke-linecap="round" stroke-linejoin="round"/>
<path d="M11.5742 74.3271H63.6131" stroke="white" stroke-width="1.85756" stroke-linecap="round" stroke-linejoin="round"/>
<path d="M54.4742 37.8392L37.5902 27.1104L20.7031 37.8392" stroke="white" stroke-width="1.85756" stroke-linecap="round" stroke-linejoin="round"/>
<path d="M37.5938 27.1104V15.1685" stroke="white" stroke-width="1.85756" stroke-linecap="round" stroke-linejoin="round"/>
<path d="M37.5938 16.7827H46.8939L43.8987 20.356L46.8939 23.9263H37.5938" stroke="white" stroke-width="1.85756" stroke-linecap="round" stroke-linejoin="round"/>
</g>
<defs>
<clipPath id="clip0_705_958">
<rect width="74.6348" height="74.3024" fill="white" transform="translate(0.277344 0.92334)"/>
</clipPath>
</defs>
</svg>
