<svg width="87" height="76" viewBox="0 0 87 76" fill="none" xmlns="http://www.w3.org/2000/svg">
<g clip-path="url(#clip0_705_936)">
<path d="M11.1829 45.7688L6.87428 38.0925C6.84721 38.0418 6.81675 37.9944 6.78628 37.947C5.13798 35.2901 1.03921 36.7861 1.35737 39.8965C1.40475 40.3873 1.5469 40.8747 1.78383 41.3384L8.85767 56.5691C9.45674 57.862 10.4857 58.9079 11.7684 59.5307L19.069 63.0608C21.2555 64.1202 22.694 66.2796 22.8361 68.6962" stroke="white" stroke-width="1.85756" stroke-linecap="round" stroke-linejoin="round"/>
<path d="M22.3792 57.6963L13.4405 52.7616C12.2525 52.105 11.8226 50.6124 12.4792 49.4244C13.1359 48.2364 14.6285 47.8065 15.8165 48.4631L23.8854 52.9173C24.4371 53.2219 25.0971 53.2659 25.6826 53.0391L26.2106 52.836C27.8014 52.2234 29.5715 52.2505 31.142 52.9139C33.1355 53.7533 34.5875 55.5133 35.0377 57.6287L36.7672 66.4286" stroke="white" stroke-width="1.85756" stroke-linecap="round" stroke-linejoin="round"/>
<path d="M22.0678 74.2101L21.5668 70.751C21.4179 69.7322 22.1185 68.7811 23.1339 68.6153L37.4 66.3104C38.4425 66.1411 39.4207 66.8587 39.5696 67.9045L40.0603 71.2993" stroke="white" stroke-width="1.85756" stroke-linecap="round" stroke-linejoin="round"/>
<path d="M75.2392 45.7688L79.5478 38.0925C79.5748 38.0418 79.6053 37.9944 79.6358 37.947C81.2841 35.2901 85.3828 36.7861 85.0647 39.8965C85.0173 40.3873 84.8751 40.8747 84.6382 41.3384L77.5644 56.5691C76.9653 57.862 75.9364 58.9079 74.6536 59.5307L67.353 63.0608C65.1665 64.1202 63.7281 66.2796 63.5859 68.6962" stroke="white" stroke-width="1.85756" stroke-linecap="round" stroke-linejoin="round"/>
<path d="M64.0442 57.6963L72.983 52.7616C74.171 52.105 74.6008 50.6124 73.9442 49.4244C73.2876 48.2364 71.795 47.8065 70.607 48.4631L62.5381 52.9173C61.9864 53.2219 61.3264 53.2659 60.7409 53.0391L60.2129 52.836C58.6221 52.2234 56.8519 52.2505 55.2815 52.9139C53.2879 53.7533 51.8359 55.5133 51.3858 57.6287L49.6562 66.4286" stroke="white" stroke-width="1.85756" stroke-linecap="round" stroke-linejoin="round"/>
<path d="M64.3481 74.2101L64.849 70.751C64.9979 69.7322 64.2973 68.7811 63.2819 68.6153L49.0158 66.3104C47.9733 66.1411 46.9952 66.8587 46.8462 67.9045L46.3555 71.2993" stroke="white" stroke-width="1.85756" stroke-linecap="round" stroke-linejoin="round"/>
<path d="M62.4961 27.8076C63.4573 28.1359 64.5099 28.3153 65.6133 28.3153C67.8201 28.3153 69.8305 27.5876 71.2961 26.4131C72.1592 25.7227 73.2152 25.3267 74.3253 25.3267H74.3896C77.0127 25.3267 79.1416 27.4556 79.1416 30.0787V33.135" stroke="white" stroke-width="1.85756" stroke-linecap="round" stroke-linejoin="round"/>
<path d="M65.6137 23.5155C69.4196 23.5155 72.5048 20.4303 72.5048 16.6245C72.5048 12.8186 69.4196 9.7334 65.6137 9.7334C61.8079 9.7334 58.7227 12.8186 58.7227 16.6245C58.7227 20.4303 61.8079 23.5155 65.6137 23.5155Z" stroke="white" stroke-width="1.85756" stroke-linecap="round" stroke-linejoin="round"/>
<path d="M26.332 41.8903V27.3263C26.332 24.0534 28.9856 21.3965 32.2619 21.3965H32.3431C33.7206 21.3965 35.044 21.894 36.1203 22.7537C37.9514 24.2226 40.4526 25.1263 43.2111 25.1263C45.9695 25.1263 48.4708 24.2226 50.3019 22.7537C51.3782 21.8906 52.7015 21.3965 54.0791 21.3965H54.1603C57.4332 21.3965 60.0901 24.05 60.0901 27.3263V41.8903" stroke="white" stroke-width="1.85756" stroke-linecap="round" stroke-linejoin="round"/>
<path d="M34.4062 36.2617V46.3817" stroke="white" stroke-width="1.85756" stroke-linecap="round" stroke-linejoin="round"/>
<path d="M52.7656 36.2617V46.3817" stroke="white" stroke-width="1.85756" stroke-linecap="round" stroke-linejoin="round"/>
<path d="M43.2019 19.1391C47.9517 19.1391 51.8022 15.2886 51.8022 10.5388C51.8022 5.78896 47.9517 1.93848 43.2019 1.93848C38.452 1.93848 34.6016 5.78896 34.6016 10.5388C34.6016 15.2886 38.452 19.1391 43.2019 19.1391Z" stroke="white" stroke-width="1.85756" stroke-linecap="round" stroke-linejoin="round"/>
<path d="M23.9184 27.8042C22.9572 28.1325 21.9046 28.3153 20.7978 28.3153C18.5911 28.3153 16.5806 27.5876 15.1151 26.4131C14.252 25.7227 13.196 25.3267 12.0858 25.3267H12.0215C9.39845 25.3267 7.26953 27.4556 7.26953 30.0787V33.135" stroke="white" stroke-width="1.85756" stroke-linecap="round" stroke-linejoin="round"/>
<path d="M20.7973 23.5155C24.6032 23.5155 27.6884 20.4303 27.6884 16.6245C27.6884 12.8186 24.6032 9.7334 20.7973 9.7334C16.9915 9.7334 13.9062 12.8186 13.9062 16.6245C13.9062 20.4303 16.9915 23.5155 20.7973 23.5155Z" stroke="white" stroke-width="1.85756" stroke-linecap="round" stroke-linejoin="round"/>
</g>
<defs>
<clipPath id="clip0_705_936">
<rect width="85.7694" height="74.3024" fill="white" transform="translate(0.328125 0.92334)"/>
</clipPath>
</defs>
</svg>
