<svg width="118" height="75" viewBox="0 0 118 75" fill="none" xmlns="http://www.w3.org/2000/svg">
<g clip-path="url(#clip0_705_901)">
<path d="M33.8706 63.1376C31.9077 61.1748 31.9077 57.9863 33.8706 56.0235L40.0171 49.8769C41.98 47.9141 45.1684 47.9141 47.1313 49.8769C49.0941 51.8398 49.0941 55.0282 47.1313 56.9911L40.9847 63.1376C39.0219 65.1005 35.8334 65.1005 33.8706 63.1376Z" stroke="white" stroke-width="1.85756" stroke-linecap="round" stroke-linejoin="round"/>
<path d="M57.1243 64.3677C57.2717 64.5151 57.4007 64.6626 57.5205 64.8192C59.0779 66.8005 58.9397 69.6664 57.1196 71.4911C56.1382 72.4725 54.8527 72.9655 53.5626 72.9655C52.2724 72.9655 50.9823 72.4725 50.0009 71.4911L48.4297 69.9152" stroke="white" stroke-width="1.85756" stroke-linecap="round" stroke-linejoin="round"/>
<path d="M64.0978 57.0972L69.6961 62.7599C71.6635 64.7274 71.6635 67.9158 69.6961 69.8741C68.71 70.8601 67.4245 71.3531 66.139 71.3531C64.8534 71.3531 63.5587 70.8601 62.5773 69.8741L57.5273 64.8241" stroke="white" stroke-width="1.85756" stroke-linecap="round" stroke-linejoin="round"/>
<path d="M80.5975 59.2625C82.1411 61.299 82.2194 64.4921 80.4132 66.2937C79.4364 67.2751 78.1463 67.7681 76.8561 67.7681C75.566 67.7681 74.2805 67.2751 73.2991 66.2937L64.0977 57.0923" stroke="white" stroke-width="1.85756" stroke-linecap="round" stroke-linejoin="round"/>
<path d="M71.172 49.9783L82.8938 61.5158C84.8751 63.4556 88.0451 63.4372 90.0033 61.4789C91.9846 59.4976 91.9754 56.2908 89.9895 54.3187L73.439 37.7912C73.1487 37.5055 72.7709 37.3304 72.3654 37.2982L70.6191 37.1553C65.2006 36.7084 60.639 32.9348 59.1784 27.7005L53.7921 28.0968C51.668 28.2534 49.8157 29.5896 49.0002 31.5571L48.415 32.9716C47.7008 34.6995 46.1388 35.9297 44.2958 36.2338C41.006 36.7729 38.0156 34.2341 38.0156 30.8982V27.8111C38.0156 25.9496 38.974 24.2171 40.5544 23.2265L48.8804 18.0199C49.484 17.6421 50.1797 17.444 50.8939 17.444L94.6755 16.5547" stroke="white" stroke-width="1.85756" stroke-linecap="round" stroke-linejoin="round"/>
<path d="M26.7495 56.0238C24.7866 54.0609 24.7866 50.8725 26.7495 48.9096L31.2788 44.3803C33.2416 42.4175 36.4301 42.4175 38.3929 44.3803C40.3558 46.3432 40.3558 49.5316 38.3929 51.4945L33.8636 56.0238C31.9008 57.9866 28.7123 57.9866 26.7495 56.0238Z" stroke="white" stroke-width="1.85756" stroke-linecap="round" stroke-linejoin="round"/>
<path d="M28.2913 47.3658C29.8072 45.3937 29.6644 42.5508 27.8582 40.7446C25.8953 38.7772 22.7069 38.7772 20.744 40.7446L19.6658 41.8228C18.6844 42.8042 18.1914 44.0898 18.1914 45.3799C18.1914 46.67 18.6844 47.9555 19.6658 48.937C21.5227 50.7938 24.4716 50.8952 26.4436 49.2411" stroke="white" stroke-width="1.85756" stroke-linecap="round" stroke-linejoin="round"/>
<path d="M49.1723 62.0595C51.1351 64.0224 51.1351 67.2108 49.1723 69.1737L48.0941 70.2519C46.1313 72.2147 42.9428 72.2147 40.9799 70.2519C39.0171 68.289 39.0171 65.1006 40.9799 63.1377L42.0581 62.0595C44.021 60.0967 47.2094 60.0967 49.1723 62.0595Z" stroke="white" stroke-width="1.85756" stroke-linecap="round" stroke-linejoin="round"/>
<path d="M14.7109 32.3267L15.333 32.7598C17.5124 34.2757 19.1665 36.4274 20.0788 38.9248L20.7423 40.7448" stroke="white" stroke-width="1.85756" stroke-linecap="round" stroke-linejoin="round"/>
<path d="M41.0443 16.6236C39.9431 16.361 38.8557 16.0339 37.7868 15.6468L30.1289 12.873" stroke="white" stroke-width="1.85756" stroke-linecap="round" stroke-linejoin="round"/>
<path d="M116.617 39.3346L109.06 42.0117C106.425 42.947 103.527 41.5647 102.596 38.9292L94.6753 16.5546C93.74 13.919 95.1223 11.0208 97.7578 10.0901L105.314 7.41309" stroke="white" stroke-width="1.85756" stroke-linecap="round" stroke-linejoin="round"/>
<path d="M22.5916 1.42334L28.8625 6.41339C31.0511 8.15506 31.4151 11.3435 29.6735 13.5321L14.9014 32.11C13.1598 34.2987 9.9713 34.6627 7.78268 32.921L1.51172 27.9309" stroke="white" stroke-width="1.85756" stroke-linecap="round" stroke-linejoin="round"/>
<path d="M103.066 40.7446L92.1133 46.7115" stroke="white" stroke-width="1.85756" stroke-linecap="round" stroke-linejoin="round"/>
</g>
<defs>
<clipPath id="clip0_705_901">
<rect width="117.863" height="74.3024" fill="white" transform="translate(0.132812 0.0410156)"/>
</clipPath>
</defs>
</svg>
