<svg width="73" height="76" viewBox="0 0 73 76" fill="none" xmlns="http://www.w3.org/2000/svg">
<g clip-path="url(#clip0_705_915)">
<path d="M67.8485 19.3563V23.512H5.09766V19.3563L36.4747 1.86768L67.8485 19.3563Z" stroke="white" stroke-width="1.85756" stroke-linecap="round" stroke-linejoin="round"/>
<path d="M10.1758 23.5122L11.1203 28.8173H12.8204H13.3494H19.5958H20.1247H21.8249L22.7694 23.5122" stroke="white" stroke-width="1.85756" stroke-linecap="round" stroke-linejoin="round"/>
<path d="M10.1758 57.9322L11.1203 52.1108H21.8249L22.7694 57.9322" stroke="white" stroke-width="1.85756" stroke-linecap="round" stroke-linejoin="round"/>
<path d="M20.1133 52.111V28.8169" stroke="white" stroke-width="1.85756" stroke-linecap="round" stroke-linejoin="round"/>
<path d="M12.832 52.111V28.8169" stroke="white" stroke-width="1.85756" stroke-linecap="round" stroke-linejoin="round"/>
<path d="M50.1758 23.5122L51.1203 28.8173H52.8204H53.3494H59.5958H60.1247H61.8249L62.7694 23.5122" stroke="white" stroke-width="1.85756" stroke-linecap="round" stroke-linejoin="round"/>
<path d="M50.1758 57.9322L51.1203 52.1108H61.8249L62.7694 57.9322" stroke="white" stroke-width="1.85756" stroke-linecap="round" stroke-linejoin="round"/>
<path d="M60.1133 52.111V28.8169" stroke="white" stroke-width="1.85756" stroke-linecap="round" stroke-linejoin="round"/>
<path d="M52.832 52.111V28.8169" stroke="white" stroke-width="1.85756" stroke-linecap="round" stroke-linejoin="round"/>
<path d="M6.21875 65.9194V61.0771H66.7343V65.9194" stroke="white" stroke-width="1.85756" stroke-linecap="round" stroke-linejoin="round"/>
<path d="M33.3594 44.6626C33.945 45.4308 34.9777 45.9377 36.1552 45.9377C37.9812 45.9377 39.4641 44.7098 39.4641 43.1955C39.4641 41.7599 38.1324 40.6297 36.4417 40.4628C34.9052 40.3526 33.6994 39.2854 33.6994 37.982C33.6994 36.6062 35.0438 35.4917 36.703 35.4917C37.7577 35.4917 38.6833 35.9419 39.2186 36.6219" stroke="white" stroke-width="1.85756" stroke-linecap="round" stroke-linejoin="round"/>
<path d="M36.4062 46.0537V47.9931" stroke="white" stroke-width="1.85756" stroke-linecap="round" stroke-linejoin="round"/>
<path d="M36.4062 33.3003V35.3216" stroke="white" stroke-width="1.85756" stroke-linecap="round" stroke-linejoin="round"/>
<path d="M37.4071 50.3554C42.8728 49.8272 46.8754 44.9684 46.3472 39.5029C45.819 34.0374 40.9599 30.035 35.4942 30.5632C30.0285 31.0913 26.0259 35.9502 26.5541 41.4157C27.0823 46.8812 31.9413 50.8836 37.4071 50.3554Z" stroke="white" stroke-width="1.85756" stroke-linecap="round" stroke-linejoin="round"/>
<path d="M71.8431 74.2817V69.3828H1.10156V74.2817" stroke="white" stroke-width="1.85756" stroke-linecap="round" stroke-linejoin="round"/>
<path d="M36.469 18.4084C38.9869 18.4084 41.0279 16.3674 41.0279 13.8497C41.0279 11.332 38.9869 9.29102 36.469 9.29102C33.9512 9.29102 31.9102 11.332 31.9102 13.8497C31.9102 16.3674 33.9512 18.4084 36.469 18.4084Z" stroke="white" stroke-width="1.85756" stroke-linecap="round" stroke-linejoin="round"/>
</g>
<defs>
<clipPath id="clip0_705_915">
<rect width="72.6306" height="74.3024" fill="white" transform="translate(0.152344 0.92334)"/>
</clipPath>
</defs>
</svg>
