<svg width="24" height="23" viewBox="0 0 24 23" fill="none" xmlns="http://www.w3.org/2000/svg">
<path d="M12.0563 22.6083C18.2691 22.6083 23.3055 17.5718 23.3055 11.3591C23.3055 5.1463 18.2691 0.109863 12.0563 0.109863C5.84357 0.109863 0.807129 5.1463 0.807129 11.3591C0.807129 17.5718 5.84357 22.6083 12.0563 22.6083Z" fill="white"/>
<path d="M17.5718 16.4113V12.3708C17.5718 10.3851 17.1443 8.86816 14.8276 8.86816C13.7106 8.86816 12.966 9.47493 12.6626 10.0541H12.635V9.04743H10.4424V16.4113H12.7315V12.757C12.7315 11.7917 12.9108 10.8677 14.0967 10.8677C15.2689 10.8677 15.2827 11.9571 15.2827 12.8121V16.3975H17.5718V16.4113Z" fill="black"/>
<path d="M6.71973 9.04736H9.00887V16.4112H6.71973V9.04736Z" fill="black"/>
<path d="M7.86437 5.37939C7.1335 5.37939 6.54053 5.97237 6.54053 6.70324C6.54053 7.43411 7.1335 8.04087 7.86437 8.04087C8.59524 8.04087 9.18822 7.43411 9.18822 6.70324C9.18822 5.97237 8.59524 5.37939 7.86437 5.37939Z" fill="black"/>
</svg>
