<svg width="58" height="52" viewBox="0 0 58 52" fill="none" xmlns="http://www.w3.org/2000/svg">
<g clip-path="url(#clip0_91_333)">
<path d="M41.9265 19.6232L37.082 3.41459C36.6488 1.967 35.1248 1.14425 33.6773 1.57744L2.84623 10.7912C1.39864 11.2244 0.575895 12.7483 1.00908 14.1959L6.59064 32.8681C7.02383 34.3157 8.54777 35.1385 9.99536 34.7053L11.499 34.2565" stroke="white" stroke-width="1.65119" stroke-linecap="round" stroke-linejoin="round"/>
<path d="M36.2633 12.0586L6.5293 20.9467" stroke="white" stroke-width="1.65119" stroke-linecap="round" stroke-linejoin="round"/>
<path d="M5.04492 15.8841L34.7805 6.99756" stroke="white" stroke-width="1.65119" stroke-linecap="round" stroke-linejoin="round"/>
<path d="M18.0305 22.8882H53.731C55.4061 22.8882 56.7664 24.2485 56.7664 25.9236V47.5455C56.7664 49.2206 55.4061 50.5809 53.731 50.5809H18.0305C16.3554 50.5809 14.9951 49.2206 14.9951 47.5455V25.9236C14.9951 24.2485 16.3554 22.8882 18.0305 22.8882Z" stroke="white" stroke-width="1.65119" stroke-linecap="round" stroke-linejoin="round"/>
<path d="M20.7451 44.2153H24.5332" stroke="white" stroke-width="1.65119" stroke-linecap="round" stroke-linejoin="round"/>
<path d="M29.4072 44.2153H33.1937" stroke="white" stroke-width="1.65119" stroke-linecap="round" stroke-linejoin="round"/>
<path d="M38.4023 44.2153H42.1904" stroke="white" stroke-width="1.65119" stroke-linecap="round" stroke-linejoin="round"/>
<path d="M47.3994 44.2153H51.1875" stroke="white" stroke-width="1.65119" stroke-linecap="round" stroke-linejoin="round"/>
<path d="M48.4952 29.9829H42.7562C41.9654 29.9829 41.3242 30.624 41.3242 31.4149V34.6046C41.3242 35.3955 41.9654 36.0366 42.7562 36.0366H48.4952C49.286 36.0366 49.9272 35.3955 49.9272 34.6046V31.4149C49.9272 30.624 49.286 29.9829 48.4952 29.9829Z" stroke="white" stroke-width="1.65119" stroke-linecap="round" stroke-linejoin="round"/>
</g>
<defs>
<clipPath id="clip0_91_333">
<rect width="57.2632" height="50.5098" fill="white" transform="translate(0.197266 0.766113)"/>
</clipPath>
</defs>
</svg>
