<svg width="48" height="51" viewBox="0 0 48 51" fill="none" xmlns="http://www.w3.org/2000/svg">
<g clip-path="url(#clip0_91_367)">
<path d="M39.622 2.68408H45.5301C46.5366 2.68408 47.3533 3.50077 47.3533 4.50729V34.8705C47.3533 35.8771 46.5366 36.6937 45.5301 36.6937H2.80465C1.79814 36.6937 0.981445 35.8771 0.981445 34.8705V4.50729C0.981445 3.50077 1.79814 2.68408 2.80465 2.68408H8.64804" stroke="white" stroke-width="1.58514" stroke-linecap="round" stroke-linejoin="round"/>
<path d="M43.2949 31.4121H0.981445" stroke="white" stroke-width="1.58514" stroke-linecap="round" stroke-linejoin="round"/>
<path d="M17.2851 42.5732H31.0512C32.7155 42.5732 34.0678 43.9241 34.0678 45.5898V45.7635C34.0678 46.1991 33.7146 46.5507 33.2805 46.5507H15.0587C14.6232 46.5507 14.2715 46.1976 14.2715 45.7635V45.5898C14.2715 43.9256 15.6223 42.5732 17.2881 42.5732H17.2851Z" stroke="white" stroke-width="1.58514" stroke-linecap="round" stroke-linejoin="round"/>
<path d="M28.2012 42.5728V39.3325" stroke="white" stroke-width="1.58514" stroke-linecap="round" stroke-linejoin="round"/>
<path d="M20.1338 42.5728V39.3325" stroke="white" stroke-width="1.58514" stroke-linecap="round" stroke-linejoin="round"/>
<path d="M20.8154 5.38428H26.2439C28.0788 5.38428 29.568 6.87345 29.568 8.70843C29.568 10.5434 28.0788 12.0326 26.2439 12.0326H20.8154V5.38575V5.38428Z" stroke="white" stroke-width="1.58514" stroke-linecap="round" stroke-linejoin="round"/>
<path d="M20.8154 12.0312H26.9001C29.1015 12.0312 30.888 13.8177 30.888 16.0191C30.888 18.2204 29.1015 20.0069 26.9001 20.0069H20.8154V12.0312Z" stroke="white" stroke-width="1.58514" stroke-linecap="round" stroke-linejoin="round"/>
<path d="M18.7705 20.0068H20.8159" stroke="white" stroke-width="1.58514" stroke-linecap="round" stroke-linejoin="round"/>
<path d="M18.7705 5.38428H20.8159" stroke="white" stroke-width="1.58514" stroke-linecap="round" stroke-linejoin="round"/>
<path d="M22.2393 5.3852V2.38037" stroke="white" stroke-width="1.58514" stroke-linecap="round" stroke-linejoin="round"/>
<path d="M25.9551 5.3852V2.38037" stroke="white" stroke-width="1.58514" stroke-linecap="round" stroke-linejoin="round"/>
<path d="M22.2393 23.0102V20.0068" stroke="white" stroke-width="1.58514" stroke-linecap="round" stroke-linejoin="round"/>
<path d="M25.9551 23.0102V20.0068" stroke="white" stroke-width="1.58514" stroke-linecap="round" stroke-linejoin="round"/>
<path d="M24.136 27.0953C32.0801 27.0953 38.5201 20.6553 38.5201 12.7112C38.5201 4.76711 32.0801 -1.67285 24.136 -1.67285C16.1919 -1.67285 9.75195 4.76711 9.75195 12.7112C9.75195 20.6553 16.1919 27.0953 24.136 27.0953Z" stroke="white" stroke-width="1.58514" stroke-linecap="round" stroke-linejoin="round"/>
</g>
<defs>
<clipPath id="clip0_91_367">
<rect width="47.6845" height="49.5356" fill="white" transform="translate(0.325195 0.476562)"/>
</clipPath>
</defs>
</svg>
