<svg width="53" height="37" viewBox="0 0 53 37" fill="none" xmlns="http://www.w3.org/2000/svg">
<path d="M6.8877 20.1206C7.31166 20.9849 8.28326 22.0217 10.4982 22.0217C14.2949 22.0217 14.3547 19.8787 14.3547 19.3746C14.3547 18.8705 14.405 16.6528 10.4982 16.1486C6.5901 15.6445 6.89449 13.6823 6.89449 13.2651C6.89449 12.8479 7.00592 10.5786 10.4982 10.5786C12.5311 10.5786 13.4116 11.4075 13.7921 12.1005" stroke="white" stroke-width="1.58514" stroke-linecap="round" stroke-linejoin="round"/>
<path d="M10.499 22.0225V24.1206" stroke="white" stroke-width="1.58514" stroke-linecap="round" stroke-linejoin="round"/>
<path d="M10.499 8.50684V10.5791" stroke="white" stroke-width="1.58514" stroke-linecap="round" stroke-linejoin="round"/>
<path d="M19.3428 18.9053H26.1928" stroke="white" stroke-width="1.58514" stroke-linecap="round" stroke-linejoin="round"/>
<path d="M19.3428 24.1201H24.3326" stroke="white" stroke-width="1.58514" stroke-linecap="round" stroke-linejoin="round"/>
<path d="M19.3428 13.689H29.5153" stroke="white" stroke-width="1.58514" stroke-linecap="round" stroke-linejoin="round"/>
<path d="M19.3428 8.4751H33.7944" stroke="white" stroke-width="1.58514" stroke-linecap="round" stroke-linejoin="round"/>
<path d="M45.147 22.9971V29.1759C45.147 32.8285 42.1751 35.8004 38.5225 35.8004H6.16504" stroke="white" stroke-width="1.58514" stroke-linecap="round" stroke-linejoin="round"/>
<path d="M40.0186 1.32422H3.66604C2.47023 1.32422 1.5 2.29445 1.5 3.49026V29.1757C1.5 30.3715 2.47023 31.3417 3.66604 31.3417H38.5211C39.7169 31.3417 40.6871 30.3715 40.6871 29.1757V23.1762" stroke="white" stroke-width="1.58514" stroke-linecap="round" stroke-linejoin="round"/>
<path d="M48.4181 9.74293L35.3363 22.8248C34.9734 23.1876 34.5332 23.4607 34.0481 23.6265L28.5596 25.495L30.4715 20.035C30.6373 19.5608 30.9077 19.13 31.2637 18.7754L44.3565 5.68262L48.4168 9.74293H48.4181Z" stroke="white" stroke-width="1.58514" stroke-linecap="round" stroke-linejoin="round"/>
<path d="M49.5921 11.8369C49.7348 12.4212 49.5785 13.064 49.1219 13.5192L43.5166 19.1245" stroke="white" stroke-width="1.58514" stroke-linecap="round" stroke-linejoin="round"/>
<path d="M46.0918 4.08621L47.3719 2.90671C47.7646 2.54525 48.3706 2.55748 48.7484 2.93524L51.1658 5.35268C51.5422 5.72908 51.5558 6.3365 51.1944 6.72921L48.4508 9.71194" stroke="white" stroke-width="1.58514" stroke-linecap="round" stroke-linejoin="round"/>
<path d="M35.3149 22.8467L32.9668 20.4985" stroke="white" stroke-width="1.58514" stroke-linecap="round" stroke-linejoin="round"/>
</svg>
