<svg width="59" height="55" viewBox="0 0 59 55" fill="none" xmlns="http://www.w3.org/2000/svg">
<g clip-path="url(#clip0_91_322)">
<path d="M12.6426 52.7681L1.29615 38.3322C0.91727 37.8501 1.00044 37.1524 1.48251 36.7735L7.65242 31.9251C8.55188 31.2181 9.85332 31.3752 10.5603 32.2731L21.7219 46.475C22.2024 47.0865 22.0961 47.9721 21.4847 48.4526L15.5489 53.1178C14.6494 53.8247 13.348 53.6676 12.641 52.7697L12.6426 52.7681Z" stroke="white" stroke-width="1.58514" stroke-linecap="round" stroke-linejoin="round"/>
<path d="M21.7422 46.2101L39.7467 44.7547C42.3373 44.4636 42.8548 44.0955 44.6014 42.4059L57.4078 28.663C58.1179 27.9006 58.0763 26.707 57.3139 25.997C55.5442 24.3475 52.8043 24.3305 51.0146 25.96L45.3206 31.1396L44.8416 31.5755" stroke="white" stroke-width="1.58514" stroke-linecap="round" stroke-linejoin="round"/>
<path d="M27.6098 37.69L39.9065 36.7767C41.2295 36.6781 42.2384 35.5507 42.1921 34.2246C42.1213 32.2024 40.441 30.6114 38.4187 30.6484L29.4334 30.8147C29.4334 30.8147 26.2329 26.9858 19.6734 27.5064C15.4056 27.8453 13.1954 29.5933 10.6973 32.2717" stroke="white" stroke-width="1.58514" stroke-linecap="round" stroke-linejoin="round"/>
<path d="M14.9001 47.0911C15.1059 47.0911 15.2728 46.9243 15.2728 46.7184C15.2728 46.5126 15.1059 46.3457 14.9001 46.3457C14.6942 46.3457 14.5273 46.5126 14.5273 46.7184C14.5273 46.9243 14.6942 47.0911 14.9001 47.0911Z" stroke="white" stroke-width="1.58514" stroke-linecap="round" stroke-linejoin="round"/>
<path d="M19.4912 24.2345V16.395H25.5348" stroke="white" stroke-width="1.58514" stroke-linecap="round" stroke-linejoin="round"/>
<path d="M29.0498 26.5558V9.03638H35.0934" stroke="white" stroke-width="1.58514" stroke-linecap="round" stroke-linejoin="round"/>
<path d="M38.6094 27.0192V1.67578H48.1677V23.5385" stroke="white" stroke-width="1.58514" stroke-linecap="round" stroke-linejoin="round"/>
</g>
<defs>
<clipPath id="clip0_91_322">
<rect width="58.2291" height="53.2575" fill="white" transform="translate(0.37207 0.98877)"/>
</clipPath>
</defs>
</svg>
