<svg width="23" height="23" viewBox="0 0 23 23" fill="none" xmlns="http://www.w3.org/2000/svg">
<path d="M11.2492 22.6083C17.462 22.6083 22.4984 17.5718 22.4984 11.3591C22.4984 5.1463 17.462 0.109863 11.2492 0.109863C5.03644 0.109863 0 5.1463 0 11.3591C0 17.5718 5.03644 22.6083 11.2492 22.6083Z" fill="white"/>
<path d="M14.6584 10.8396C14.5971 10.8101 14.535 10.7815 14.4714 10.7544C14.3616 8.72835 13.2538 7.5681 11.3949 7.55616C11.3861 7.55616 11.3782 7.55616 11.3694 7.55616C10.2577 7.55616 9.3322 8.03124 8.76322 8.89467L9.7858 9.59575C10.2107 8.95037 10.8784 8.8127 11.3702 8.8127C11.3758 8.8127 11.3813 8.8127 11.3869 8.8127C11.9989 8.81668 12.4612 8.99494 12.7596 9.3419C12.9769 9.59496 13.1225 9.94351 13.1949 10.3844C12.6522 10.2921 12.0649 10.2634 11.4378 10.3C9.67041 10.4019 8.53403 11.4324 8.61043 12.8656C8.64942 13.5922 9.01151 14.2177 9.62983 14.6259C10.1527 14.9713 10.8267 15.14 11.5262 15.1018C12.4509 15.0509 13.1758 14.6983 13.682 14.0537C14.0663 13.5643 14.309 12.9293 14.4165 12.1295C14.8573 12.3953 15.1836 12.7455 15.3643 13.1656C15.6706 13.8811 15.6889 15.0556 14.73 16.0138C13.8897 16.8533 12.8806 17.2162 11.3543 17.2273C9.66166 17.2146 8.38124 16.6719 7.54885 15.6135C6.76978 14.6227 6.36632 13.1919 6.35199 11.36C6.36711 9.52811 6.76978 8.09729 7.54885 7.10654C8.38124 6.04815 9.66166 5.50542 11.3543 5.49269C13.0589 5.50542 14.3616 6.05054 15.2258 7.1137C15.6491 7.63494 15.969 8.29067 16.1799 9.05542L17.3784 8.73551C17.1229 7.79489 16.7211 6.98399 16.1752 6.31155C15.0674 4.94837 13.4472 4.25047 11.3591 4.23535H11.3503C9.26695 4.24968 7.66504 4.95076 6.58834 6.31871C5.63022 7.53626 5.13683 9.23049 5.12012 11.3536V11.3584V11.3632C5.13683 13.4871 5.63101 15.1814 6.58834 16.3989C7.66504 17.7669 9.26695 18.468 11.3503 18.4823H11.3591C13.2117 18.4695 14.5167 17.9841 15.5926 16.9098C16.9996 15.5037 16.9574 13.7418 16.4935 12.6595C16.1608 11.8836 15.5266 11.2534 14.6592 10.8372L14.6584 10.8396ZM11.4601 13.846C10.685 13.8898 9.8805 13.542 9.84071 12.7972C9.81127 12.2449 10.2338 11.629 11.5079 11.555C11.6535 11.5462 11.7967 11.5422 11.9376 11.5422C12.4 11.5422 12.8329 11.5868 13.2268 11.6735C13.0803 13.507 12.2193 13.8047 11.4601 13.846Z" fill="black"/>
</svg>
