<svg width="32" height="31" viewBox="0 0 32 31" fill="none" xmlns="http://www.w3.org/2000/svg">
<path d="M28.76 17.4893L30.7422 15.4626L28.76 13.436C28.4909 13.1609 28.4116 12.7512 28.5593 12.3956L29.6586 9.74069L27.0108 8.64388C26.6516 8.49491 26.4174 8.14412 26.4174 7.75609V4.88972H23.5522C23.163 4.88972 22.8134 4.65547 22.6644 4.29627L21.5676 1.64854L18.9127 2.74776C18.5571 2.89552 18.1474 2.81623 17.8723 2.54713L15.8457 0.564941L13.819 2.54713C13.5439 2.81623 13.1343 2.89552 12.7787 2.74776L10.1238 1.64854L9.02695 4.29627C8.87799 4.65547 8.5272 4.88972 8.13917 4.88972H5.274V7.75609C5.274 8.14532 5.03974 8.49491 4.68054 8.64388L2.03282 9.74069L3.13203 12.3956C3.2798 12.7512 3.20051 13.1609 2.93141 13.436L0.949219 15.4626L2.93141 17.4893C3.20051 17.7644 3.2798 18.174 3.13203 18.5296L2.03282 21.1845L4.68054 22.2814C5.03974 22.4303 5.274 22.7811 5.274 23.1691V26.0343H8.14037C8.5296 26.0343 8.87919 26.2686 9.02815 26.6278L10.125 29.2755L12.7799 28.1763C13.1355 28.0285 13.5451 28.1078 13.8202 28.3769L15.8469 30.3591L17.8735 28.3769C18.1486 28.1078 18.5583 28.0285 18.9139 28.1763L21.5688 29.2755L22.6656 26.6278C22.8146 26.2686 23.1654 26.0343 23.5534 26.0343H26.4198V23.1691C26.4198 22.7799 26.654 22.4303 27.0132 22.2814L29.661 21.1845L28.5617 18.5296C28.414 18.174 28.4933 17.7644 28.7624 17.4893H28.76Z" stroke="black" stroke-width="1.5377" stroke-linecap="round" stroke-linejoin="round"/>
<path d="M12.4805 15.9434L15.3637 18.3461L21.13 11.6187" stroke="black" stroke-width="1.5377" stroke-linecap="round" stroke-linejoin="round"/>
<path d="M11.764 7.29358C12.9918 6.6785 14.3781 6.33252 15.8449 6.33252C20.8869 6.33252 24.975 10.4206 24.975 15.4626C24.975 20.5046 20.8869 24.5927 15.8449 24.5927C10.803 24.5927 6.71484 20.5046 6.71484 15.4626C6.71484 13.8973 7.10888 12.4257 7.80205 11.1378" stroke="black" stroke-width="1.5377" stroke-linecap="round" stroke-linejoin="round"/>
</svg>
