<svg width="32" height="31" viewBox="0 0 32 31" fill="none" xmlns="http://www.w3.org/2000/svg">
<g clip-path="url(#clip0_705_808)">
<path d="M28.6936 17.4634L30.6758 15.4367L28.6936 13.4101C28.4245 13.135 28.3452 12.7253 28.4929 12.3697L29.5922 9.71481L26.9444 8.618C26.5852 8.46903 26.351 8.11824 26.351 7.73021V4.86385H23.4858C23.0966 4.86385 22.747 4.62959 22.598 4.27039L21.5012 1.62266L18.8463 2.72188C18.4907 2.86964 18.081 2.79035 17.8059 2.52125L15.7793 0.539062L13.7526 2.52125C13.4775 2.79035 13.0679 2.86964 12.7123 2.72188L10.0574 1.62266L8.96054 4.27039C8.81158 4.62959 8.46079 4.86385 8.07276 4.86385H5.20759V7.73021C5.20759 8.11945 4.97334 8.46903 4.61414 8.618L1.96641 9.71481L3.06563 12.3697C3.21339 12.7253 3.1341 13.135 2.865 13.4101L0.882812 15.4367L2.865 17.4634C3.1341 17.7385 3.21339 18.1481 3.06563 18.5037L1.96641 21.1587L4.61414 22.2555C4.97334 22.4044 5.20759 22.7552 5.20759 23.1433V26.0084H8.07396C8.46319 26.0084 8.81278 26.2427 8.96175 26.6019L10.0586 29.2496L12.7135 28.1504C13.0691 28.0026 13.4787 28.0819 13.7538 28.351L15.7805 30.3332L17.8071 28.351C18.0822 28.0819 18.4919 28.0026 18.8475 28.1504L21.5024 29.2496L22.5992 26.6019C22.7482 26.2427 23.099 26.0084 23.487 26.0084H26.3534V23.1433C26.3534 22.754 26.5876 22.4044 26.9468 22.2555L29.5946 21.1587L28.4953 18.5037C28.3476 18.1481 28.4269 17.7385 28.696 17.4634H28.6936Z" stroke="white" stroke-width="1.5377" stroke-linecap="round" stroke-linejoin="round"/>
<path d="M12.4141 15.9171L15.2973 18.3197L21.0636 11.5923" stroke="white" stroke-width="1.5377" stroke-linecap="round" stroke-linejoin="round"/>
<path d="M11.6976 7.2677C12.9254 6.65262 14.3117 6.30664 15.7785 6.30664C20.8205 6.30664 24.9086 10.3948 24.9086 15.4367C24.9086 20.4787 20.8205 24.5668 15.7785 24.5668C10.7366 24.5668 6.64844 20.4787 6.64844 15.4367C6.64844 13.8714 7.04247 12.3998 7.73564 11.112" stroke="white" stroke-width="1.5377" stroke-linecap="round" stroke-linejoin="round"/>
</g>
<defs>
<clipPath id="clip0_705_808">
<rect width="30.754" height="30.754" fill="white" transform="translate(0.402344 0.0595703)"/>
</clipPath>
</defs>
</svg>
