<svg width="60" height="60" viewBox="0 0 60 60" fill="none" xmlns="http://www.w3.org/2000/svg">
<rect width="60" height="60" rx="8" fill="#3A3A3A"/>
<path d="M33.3301 42.75H18C16.7593 42.75 15.75 41.7407 15.75 40.5V21.5649C15.75 21.366 15.8291 21.175 15.97 21.0344L21.04 15.9695C21.1807 15.8289 21.3713 15.75 21.5701 15.75H34.415C35.6558 15.75 36.665 16.7593 36.665 18V26.4551C36.665 26.8694 36.3293 27.2051 35.915 27.2051C35.5007 27.2051 35.165 26.8694 35.165 26.4551V18C35.165 17.5864 34.8286 17.25 34.415 17.25H21.8806L17.25 21.8757V40.5C17.25 40.9136 17.5864 41.25 18 41.25H33.3301C33.7444 41.25 34.0801 41.5857 34.0801 42C34.0801 42.4143 33.7444 42.75 33.3301 42.75Z" fill="white"/>
<path d="M21.5691 22.3166H16.5001C16.1966 22.3166 15.9231 22.1338 15.8072 21.8535C15.691 21.5732 15.7552 21.2507 15.9698 21.0361L21.0389 15.9695C21.2532 15.7549 21.5757 15.6907 21.8563 15.8071C22.1365 15.9233 22.3191 16.1968 22.3191 16.5V21.5666C22.3191 21.9809 21.9834 22.3166 21.5691 22.3166ZM18.3113 20.8166H20.8191V18.31L18.3113 20.8166Z" fill="white"/>
<path d="M43.4983 44.25H33.3281C32.9138 44.25 32.5781 43.9143 32.5781 43.5V29.9995C32.5781 29.5852 32.9138 29.2495 33.3281 29.2495H43.4983C43.9126 29.2495 44.2483 29.5852 44.2483 29.9995V43.5C44.2483 43.9143 43.9126 44.25 43.4983 44.25ZM34.0781 42.75H42.7483V30.7495H34.0781V42.75Z" fill="white"/>
<path d="M41.3054 35.3599H35.5234C35.1091 35.3599 34.7734 35.0242 34.7734 34.6099V32.0747C34.7734 31.6604 35.1091 31.3247 35.5234 31.3247H41.3054C41.7197 31.3247 42.0554 31.6604 42.0554 32.0747V34.6099C42.0554 35.0242 41.7197 35.3599 41.3054 35.3599ZM36.2734 33.8599H40.5554V32.8247H36.2734V33.8599Z" fill="white"/>
<path d="M36.0061 37.6316H35.5234C35.1091 37.6316 34.7734 37.2959 34.7734 36.8816C34.7734 36.4673 35.1091 36.1316 35.5234 36.1316H36.0061C36.4204 36.1316 36.7561 36.4673 36.7561 36.8816C36.7561 37.2959 36.4204 37.6316 36.0061 37.6316Z" fill="white"/>
<path d="M38.6545 37.6316H38.1719C37.7576 37.6316 37.4219 37.2959 37.4219 36.8816C37.4219 36.4673 37.7576 36.1316 38.1719 36.1316H38.6545C39.0688 36.1316 39.4045 36.4673 39.4045 36.8816C39.4045 37.2959 39.0688 37.6316 38.6545 37.6316Z" fill="white"/>
<path d="M41.3069 37.6316H40.8242C40.4099 37.6316 40.0742 37.2959 40.0742 36.8816C40.0742 36.4673 40.4099 36.1316 40.8242 36.1316H41.3069C41.7212 36.1316 42.0569 36.4673 42.0569 36.8816C42.0569 37.2959 41.7212 37.6316 41.3069 37.6316Z" fill="white"/>
<path d="M36.0061 39.9031H35.5234C35.1091 39.9031 34.7734 39.5674 34.7734 39.1531C34.7734 38.7388 35.1091 38.4031 35.5234 38.4031H36.0061C36.4204 38.4031 36.7561 38.7388 36.7561 39.1531C36.7561 39.5674 36.4204 39.9031 36.0061 39.9031Z" fill="white"/>
<path d="M38.6545 39.9031H38.1719C37.7576 39.9031 37.4219 39.5674 37.4219 39.1531C37.4219 38.7388 37.7576 38.4031 38.1719 38.4031H38.6545C39.0688 38.4031 39.4045 38.7388 39.4045 39.1531C39.4045 39.5674 39.0688 39.9031 38.6545 39.9031Z" fill="white"/>
<path d="M41.3069 39.9031H40.8242C40.4099 39.9031 40.0742 39.5674 40.0742 39.1531C40.0742 38.7388 40.4099 38.4031 40.8242 38.4031H41.3069C41.7212 38.4031 42.0569 38.7388 42.0569 39.1531C42.0569 39.5674 41.7212 39.9031 41.3069 39.9031Z" fill="white"/>
<path d="M36.0061 42.1748H35.5234C35.1091 42.1748 34.7734 41.8391 34.7734 41.4248C34.7734 41.0105 35.1091 40.6748 35.5234 40.6748H36.0061C36.4204 40.6748 36.7561 41.0105 36.7561 41.4248C36.7561 41.8391 36.4204 42.1748 36.0061 42.1748Z" fill="white"/>
<path d="M38.6545 42.1748H38.1719C37.7576 42.1748 37.4219 41.8391 37.4219 41.4248C37.4219 41.0105 37.7576 40.6748 38.1719 40.6748H38.6545C39.0688 40.6748 39.4045 41.0105 39.4045 41.4248C39.4045 41.8391 39.0688 42.1748 38.6545 42.1748Z" fill="white"/>
<path d="M41.3069 42.1748H40.8242C40.4099 42.1748 40.0742 41.8391 40.0742 41.4248C40.0742 41.0105 40.4099 40.6748 40.8242 40.6748H41.3069C41.7212 40.6748 42.0569 41.0105 42.0569 41.4248C42.0569 41.8391 41.7212 42.1748 41.3069 42.1748Z" fill="white"/>
<path d="M27.3752 30.75C24.6785 30.75 22.4844 28.5559 22.4844 25.8591C22.4844 23.1621 24.6785 20.968 27.3752 20.968C30.0723 20.968 32.2664 23.1621 32.2664 25.8591C32.2664 28.5559 30.0723 30.75 27.3752 30.75ZM27.3752 22.468C25.5056 22.468 23.9844 23.9893 23.9844 25.8591C23.9844 27.7288 25.5056 29.25 27.3752 29.25C29.2451 29.25 30.7664 27.7288 30.7664 25.8591C30.7664 23.9893 29.2451 22.468 27.3752 22.468Z" fill="white"/>
<path d="M24.4883 29.5757C24.2998 29.5757 24.1111 29.5052 23.9653 29.3633C23.6684 29.0745 23.6618 28.5997 23.9507 28.3028L26.8369 25.3362C27.126 25.0396 27.6008 25.033 27.8974 25.3216C28.1943 25.6104 28.2009 26.0852 27.9121 26.3821L25.0259 29.3487C24.8789 29.4998 24.6836 29.5757 24.4883 29.5757Z" fill="white"/>
<path d="M27.375 26.6091C26.9607 26.6091 26.625 26.2734 26.625 25.8591V21.718C26.625 21.3037 26.9607 20.968 27.375 20.968C27.7893 20.968 28.125 21.3037 28.125 21.718V25.8591C28.125 26.2734 27.7893 26.6091 27.375 26.6091Z" fill="white"/>
<path d="M30.3442 38.9861H19.3047C18.8904 38.9861 18.5547 38.6504 18.5547 38.2361C18.5547 37.8218 18.8904 37.4861 19.3047 37.4861H30.3442C30.7585 37.4861 31.0942 37.8218 31.0942 38.2361C31.0942 38.6504 30.7585 38.9861 30.3442 38.9861Z" fill="white"/>
<path d="M21.1016 38.9861C20.6873 38.9861 20.3516 38.6504 20.3516 38.2361V30.8906C20.3516 30.4763 20.6873 30.1406 21.1016 30.1406C21.5159 30.1406 21.8516 30.4763 21.8516 30.8906V38.2361C21.8516 38.6504 21.5159 38.9861 21.1016 38.9861Z" fill="white"/>
<path d="M24.7617 38.9861C24.3474 38.9861 24.0117 38.6504 24.0117 38.2361V33.0618C24.0117 32.6475 24.3474 32.3118 24.7617 32.3118C25.176 32.3118 25.5117 32.6475 25.5117 33.0618V38.2361C25.5117 38.6504 25.176 38.9861 24.7617 38.9861Z" fill="white"/>
<path d="M28.6719 38.9861C28.2576 38.9861 27.9219 38.6504 27.9219 38.2361V35.1243C27.9219 34.71 28.2576 34.3743 28.6719 34.3743C29.0862 34.3743 29.4219 34.71 29.4219 35.1243V38.2361C29.4219 38.6504 29.0862 38.9861 28.6719 38.9861Z" fill="white"/>
</svg>
