<svg width="23" height="23" viewBox="0 0 23 23" fill="none" xmlns="http://www.w3.org/2000/svg">
<path d="M11.7492 22.6083C17.962 22.6083 22.9984 17.5718 22.9984 11.3591C22.9984 5.1463 17.962 0.109863 11.7492 0.109863C5.53644 0.109863 0.5 5.1463 0.5 11.3591C0.5 17.5718 5.53644 22.6083 11.7492 22.6083Z" fill="white"/>
<path d="M15.7189 5.11865H17.8365L13.2106 10.4058L18.6522 17.5997H14.3916L11.054 13.2364L7.23508 17.5997H5.11671L10.0641 11.9449L4.84375 5.11865H9.21261L12.2294 9.10712L15.7181 5.11865H15.7189ZM14.9757 16.332H16.1487L8.57518 6.31869H7.31625L14.9749 16.332H14.9757Z" fill="black"/>
</svg>
