<svg width="86" height="86" viewBox="0 0 86 86" fill="none" xmlns="http://www.w3.org/2000/svg">
<circle cx="43.1438" cy="43.4257" r="42.4859" fill="black"/>
<path d="M40.7387 17.6362C40.94 18.7096 40.7387 20.3868 40.2691 21.4602L39.397 23.4728L37.854 21.9298C37.0489 21.1248 36.1097 20.5881 35.9085 20.8564C35.6401 21.0577 35.7743 21.4602 36.1768 21.7285C37.1831 22.3994 37.854 24.5462 37.0489 24.5462C36.7135 24.5462 35.6401 23.7411 34.6338 22.8019C33.6946 21.8627 32.7554 21.2589 32.5541 21.4602C32.3529 21.7285 32.6212 22.2652 33.1579 22.7348C34.8351 24.0766 36.4452 27.0284 36.4452 28.7055V30.2485L37.6527 28.8397C40.0007 25.8879 44.2272 25.0158 46.9778 26.8942C48.3195 27.8334 48.3866 27.7663 48.7891 24.8816C49.0574 23.2044 49.7283 21.4602 50.265 20.9235C51.4726 19.6488 51.4726 19.1792 50.1979 19.1792C49.6612 19.1792 49.1916 19.783 49.1916 20.521C49.1916 21.1918 48.5878 22.1311 47.8499 22.5336C46.7094 23.1374 46.5082 23.0703 46.5082 21.9969C46.5082 21.326 46.8436 20.4539 47.2461 20.0514C47.7828 19.5147 47.7828 19.1792 47.2461 18.9109C46.5752 18.4413 46.1056 19.2463 45.0322 22.5336C44.5626 23.8753 41.8121 19.3805 41.8121 17.3008C41.8121 16.4958 41.4767 15.8249 41.0741 15.8249C40.6716 15.8249 40.5374 16.5629 40.7387 17.6362ZM42.483 23.607C42.483 24.1437 42.1475 24.412 41.8121 24.2107C41.4096 23.9424 41.2754 23.4728 41.4767 23.1374C42.0804 22.1981 42.483 22.3994 42.483 23.607Z" fill="white"/>
<path d="M66.9697 16.4286C65.0242 16.8982 65.0242 16.8982 66.5001 17.4349C67.4393 17.7032 67.9089 18.307 67.7077 18.8437C67.3051 19.9171 69.2506 21.7955 71.062 21.9297C73.5442 22.198 74.6176 21.8626 74.8859 20.655C75.0872 20.0512 75.2214 20.7892 75.2884 22.3322C75.3555 24.8144 75.5568 25.2169 76.7643 25.2169C77.8377 25.2169 78.039 25.0157 77.5694 24.3448C76.3618 22.936 76.0935 19.85 77.0998 19.85C78.9111 19.85 77.9719 18.7766 75.0201 17.3007C71.867 15.7577 70.4582 15.6235 66.9697 16.4286Z" fill="white"/>
<path d="M61.3343 20.7221C60.7305 21.5272 60.7976 21.7955 61.5356 22.0638C62.8102 22.5335 63.3469 21.7955 62.676 20.655C62.2735 19.9842 62.0052 19.9842 61.3343 20.7221Z" fill="white"/>
<path d="M65.2255 26.9613C61.4686 30.8523 55.4979 34.8104 51.4056 36.2863C49.5943 36.8901 47.2463 37.8964 46.0387 38.4331C44.697 39.104 43.2211 39.3052 42.0135 39.0369C41.0072 38.7685 37.9883 38.5673 35.3719 38.6344C30.1392 38.7014 26.9861 37.7622 23.2292 34.8775C22.0217 33.9383 21.0154 33.5358 21.0154 33.9383C21.0154 35.6825 23.6318 38.2989 28.6633 41.6533C38.0554 47.8252 38.5921 51.1125 31.9505 60.2363C30.6759 62.0476 29.8037 63.4564 30.0721 63.4564C31.0784 63.4564 41.8122 58.1566 44.9653 56.0769C47.9171 54.1314 48.4538 53.4605 49.1247 50.4416C50.2652 45.4101 52.5461 42.0558 58.4497 36.7559C63.4141 32.2611 69.3178 24.9487 68.5798 24.2107C68.3786 24.0766 66.9026 25.2841 65.2255 26.9613Z" fill="white"/>
<path d="M39.5312 29.3764C38.2566 31.1877 38.1895 32.7978 39.1958 34.8104C40.2692 36.7559 41.0742 37.2926 43.2881 37.2926C46.9107 37.2926 49.3259 31.4561 46.6424 29.0409C44.764 27.3638 40.8059 27.565 39.5312 29.3764Z" fill="white"/>
<path d="M70.4582 32.8649C70.1899 33.4687 69.3178 34.2738 68.5127 34.6092L66.9697 35.213H68.4456C69.2507 35.2801 70.257 35.8167 70.6595 36.4205C71.3304 37.561 71.3304 37.561 72.0012 36.4205C72.4037 35.8167 73.2759 35.2801 73.8797 35.2801C74.8189 35.213 74.8189 35.1459 73.6784 34.475C72.9404 34.0725 72.0012 33.2675 71.5987 32.7308C70.9949 31.8586 70.7937 31.8586 70.4582 32.8649Z" fill="white"/>
<path d="M61.9381 45.0746C50.2651 56.9489 32.4871 66.8106 22.8266 66.8106C19.1369 66.8106 17.661 66.1398 16.4534 63.8588C15.8496 62.6513 15.7154 62.7854 15.0446 65.1335C14.1725 68.4207 15.2458 70.9029 17.7951 71.5738C25.443 73.5864 46.9778 62.3158 59.2547 49.9719C63.4141 45.7454 67.3722 40.6468 66.5 40.6468C66.3659 40.6468 64.2862 42.6594 61.9381 45.0746Z" fill="white"/>
<path d="M23.2291 54.1984C20.4786 57.3515 19.0027 60.0349 19.0027 61.9805C19.0027 64.2614 19.9419 64.7981 23.9 64.7981L26.7177 64.731L24.7051 63.6576C23.6317 63.0538 22.4241 62.2488 22.1558 61.8463C21.3507 60.7058 22.1558 56.949 23.6988 54.7351C25.3759 52.3871 25.1747 52.1187 23.2291 54.1984Z" fill="white"/>
</svg>
